<?xml version="1.0" encoding="UTF-8"?>
<svg version="1.1" xmlns="http://www.w3.org/2000/svg" width="411" height="410">
<path d="M0 0 C135.63 0 271.26 0 411 0 C411 135.3 411 270.6 411 410 C275.37 410 139.74 410 0 410 C0 274.7 0 139.4 0 0 Z " fill="#F2E01D" transform="translate(0,0)"/>
<path d="M0 0 C1.16466797 -0.020625 2.32933594 -0.04125 3.52929688 -0.0625 C19.71600752 -0.13464133 33.83529182 4.49661403 45.6640625 15.80859375 C49.19188528 19.59706323 52.69115363 23.55456842 54.9375 28.25 C54.81689453 30.16845703 54.81689453 30.16845703 53.9375 32.25 C51.77612305 34.03344727 51.77612305 34.03344727 48.94921875 35.81640625 C47.93279297 36.46673828 46.91636719 37.11707031 45.86914062 37.78710938 C44.79857422 38.45548828 43.72800781 39.12386719 42.625 39.8125 C40.52412403 41.14616625 38.42384019 42.48076583 36.32421875 43.81640625 C34.91982544 44.69727905 34.91982544 44.69727905 33.48706055 45.59594727 C30.94653118 47.19350522 30.94653118 47.19350522 28.72583008 48.96459961 C26.9375 50.25 26.9375 50.25 24.9375 50.25 C24.0293197 48.91006185 23.18630631 47.52571688 22.375 46.125 C18.54623791 40.1899507 13.70773317 36.32720948 6.875 34.375 C5.905625 34.33375 4.93625 34.2925 3.9375 34.25 C2.65875 34.146875 1.38 34.04375 0.0625 33.9375 C-4.61658017 34.00921004 -8.23645437 35.62012384 -12.0625 38.25 C-16.16046282 42.55811476 -17.46002392 46.07599703 -17.328125 52.06640625 C-16.74923456 56.82522621 -14.95359647 60.69659042 -11.21264648 63.76953125 C-5.55022871 67.49698477 0.22965896 70.41819832 6.4375 73.125 C8.38435329 73.99556012 10.33096538 74.86665983 12.27734375 75.73828125 C14.98338764 76.9406128 17.69033939 78.14081002 20.39892578 79.33740234 C38.88507838 87.54690781 54.65521661 97.49655659 64.11328125 116.0703125 C68.98782226 128.96127876 69.01432617 145.59406795 64.19140625 158.5 C56.5502197 175.25824091 45.02145445 183.2663049 28.296875 189.63671875 C7.53416571 195.9317955 -17.75833815 194.12255993 -37.0625 184.25 C-49.04562651 177.56042297 -59.225275 169.39846065 -66.0625 157.25 C-66.75390625 154.44921875 -66.75390625 154.44921875 -67.0625 152.25 C-59.936508 147.77185092 -52.74705251 143.42222971 -45.4375 139.25 C-44.75107422 138.85240479 -44.06464844 138.45480957 -43.35742188 138.04516602 C-38.4139764 135.25 -38.4139764 135.25 -35.0625 135.25 C-33.37109375 137.41015625 -33.37109375 137.41015625 -31.5 140.3125 C-25.22854797 149.2161308 -16.75950158 154.90085456 -6.0625 157.25 C3.89391236 158.24001614 13.91125522 157.8224932 21.9375 151.3125 C25.18174638 148.38799906 26.74896181 145.82407466 27.2734375 141.4453125 C27.33245475 136.80655633 27.33432416 133.1816741 25.5 128.875 C18.59619768 121.80281226 9.70611172 118.1422808 0.75 114.3125 C-1.66232185 113.25718003 -4.07379069 112.19990789 -6.484375 111.140625 C-7.62712891 110.63982422 -8.76988281 110.13902344 -9.94726562 109.62304688 C-30.61630639 100.51311856 -45.68535693 89.91154618 -54.265625 68.70703125 C-58.70562823 55.01702129 -57.01458589 39.25672978 -50.7421875 26.58203125 C-43.52662084 13.55063901 -32.03818718 5.83026723 -18.0625 1.25 C-12.08064283 -0.15836547 -6.11545634 0.02645952 0 0 Z " fill="#070808" transform="translate(313.0625,186.75)"/>
<path d="M0 0 C12.54 0 25.08 0 38 0 C38.0905718 18.4989422 38.16413914 36.99770266 38.20724869 55.49681091 C38.22780429 64.0877989 38.25578956 72.67863854 38.30175781 81.26953125 C38.34184153 88.76430145 38.36748358 96.25896411 38.37635398 103.75383854 C38.38153261 107.71606334 38.39355478 111.67798072 38.42292023 115.6401062 C38.45043144 119.38300631 38.45837453 123.12547761 38.45243073 126.86846924 C38.45402543 128.86931891 38.47535867 130.87012382 38.49768066 132.87084961 C38.42208805 149.8301771 34.15597284 164.17552577 22.46484375 176.703125 C8.52735835 189.6908293 -8.70202363 190.58638712 -26.73828125 190.31640625 C-33.7677562 190.06776861 -39.55725404 188.94083299 -46 186 C-46.85851562 185.649375 -47.71703125 185.29875 -48.6015625 184.9375 C-58.60487608 180.4778184 -67.1246987 173.22723601 -73 164 C-73.4228125 163.36835938 -73.845625 162.73671875 -74.28125 162.0859375 C-77.03828418 157.70821431 -77.03828418 157.70821431 -76.89135742 154.99023438 C-75.62860937 152.1707542 -73.97000043 151.42046442 -71.30078125 149.90625 C-70.33849609 149.35066406 -69.37621094 148.79507813 -68.38476562 148.22265625 C-66.86399414 147.36994141 -66.86399414 147.36994141 -65.3125 146.5 C-63.32862309 145.3659887 -61.34552842 144.23060766 -59.36328125 143.09375 C-57.96070068 142.29710937 -57.96070068 142.29710937 -56.52978516 141.484375 C-54.44236214 140.2595601 -52.45903942 138.98333657 -50.48046875 137.59375 C-48 136 -48 136 -45 136 C-43.67578125 137.94140625 -43.67578125 137.94140625 -42.3125 140.5625 C-39.08824387 146.25141308 -34.93382605 151.03308698 -29 154 C-26.40212471 154.15144564 -23.84891179 154.23136981 -21.25 154.25 C-20.54617187 154.270625 -19.84234375 154.29125 -19.1171875 154.3125 C-14.33839785 154.34803003 -11.16669982 153.57281164 -7 151 C-1.61397669 145.22926073 -0.89085566 137.70083211 -0.84178162 130.11538696 C-0.8319928 128.96281403 -0.82220398 127.81024109 -0.81211853 126.6227417 C-0.80636307 125.37261292 -0.8006076 124.12248413 -0.79467773 122.83447266 C-0.78508898 121.49370021 -0.77507833 120.15293072 -0.76467896 118.81216431 C-0.73773178 115.18455513 -0.71666733 111.55693309 -0.69667697 107.9292798 C-0.67475429 104.13360553 -0.64739644 100.33797047 -0.62062073 96.54232788 C-0.57077856 89.36019103 -0.52580842 82.17803231 -0.48259836 74.99585283 C-0.43315338 66.81688333 -0.37826226 58.63795319 -0.32291877 50.45902181 C-0.2092289 33.63938291 -0.10308062 16.81970777 0 0 Z " fill="#060708" transform="translate(186,189)"/>
<path d="M0 0 C13.2 0 26.4 0 40 0 C40 46.2 40 92.4 40 140 C39.67 140 39.34 140 39 140 C39 94.46 39 48.92 39 2 C26.46 2 13.92 2 1 2 C1.01047363 6.07794922 1.02094727 10.15589844 1.03173828 14.35742188 C1.06488068 27.83230381 1.08707269 41.30718513 1.10362434 54.78209686 C1.11392662 62.95175762 1.12796687 71.1213797 1.15087891 79.29101562 C1.17084492 86.41361407 1.18372406 93.53618449 1.18817699 100.65881014 C1.19077894 104.4284134 1.19687272 108.19793652 1.21146011 111.96751404 C1.22509483 115.51988645 1.22921081 119.07214614 1.22621536 122.62454224 C1.2270228 124.54100995 1.23775351 126.45746555 1.24884033 128.37390137 C1.2292355 136.61224 0.33095025 143.38639944 -3 151 C-3.33 151 -3.66 151 -4 151 C-4 148.36 -4 145.72 -4 143 C-3.34 142.67 -2.68 142.34 -2 142 C-1.99576806 141.27424554 -1.99153612 140.54849108 -1.98717594 139.80074406 C-1.8840115 122.16694511 -1.77539537 104.53318826 -1.66066074 86.89946079 C-1.60530907 78.37203423 -1.55182394 69.84460349 -1.50268555 61.31713867 C-1.45986746 53.88731118 -1.41359557 46.45751475 -1.36312145 39.02773517 C-1.3365013 35.09128504 -1.31164784 31.15484115 -1.29092598 27.21835518 C-1.2713897 23.51743655 -1.24725516 19.81657712 -1.21950912 16.11571121 C-1.20562843 14.10131571 -1.1966991 12.08688802 -1.18788147 10.07246399 C-1.17809265 8.8846936 -1.16830383 7.69692322 -1.15821838 6.47315979 C-1.15176583 5.4342991 -1.14531328 4.3954384 -1.1386652 3.32509708 C-1 1 -1 1 0 0 Z " fill="#A69F32" transform="translate(185,187)"/>
<path d="M0 0 C1.69382812 0.2475 1.69382812 0.2475 3.421875 0.5 C10.99686453 1.3423246 18.63994317 1.06728892 26.25 1 C29.29687166 0.97330651 32.34367999 0.95338667 35.390625 0.9375 C36.08029358 0.92920166 36.76996216 0.92090332 37.48052979 0.91235352 C41.12146185 0.89388706 44.46005545 1.13251721 48 2 C48 1.34 48 0.68 48 0 C48.66 0 49.32 0 50 0 C50.99 2.97 50.99 2.97 52 6 C51.30261719 5.7834375 50.60523438 5.566875 49.88671875 5.34375 C31.29214831 0.43968747 10.04329667 0.40155444 -7.0625 9.625 C-8.37528294 10.41619739 -9.68780274 11.20783164 -11 12 C-12.3272777 12.67864286 -13.65899182 13.34890917 -15 14 C-15 13.01 -15 12.02 -15 11 C-14.34 11 -13.68 11 -13 11 C-13.33 9.68 -13.66 8.36 -14 7 C-10.42655481 3.56949262 -7.7759364 4 -3 4 C-1.03568595 2.70735301 -1.03568595 2.70735301 0 1 C0 0.67 0 0.34 0 0 Z " fill="#E5D738" transform="translate(289,185)"/>
<path d="M0 0 C0 0.99 0 1.98 0 3 C-0.66 3 -1.32 3 -2 3 C-2 3.66 -2 4.32 -2 5 C-1.01 5 -0.02 5 1 5 C0 8 0 8 -1 9 C-0.2710941 15.41437192 1.15662028 19.64095825 6 24 C5.34 24.66 4.68 25.32 4 26 C-9.69606139 11.54595048 -9.69606139 11.54595048 -10.1875 5.8125 C-8.05292348 2.55446215 -3.93179975 0 0 0 Z " fill="#0B0C06" transform="translate(256,334)"/>
<path d="M0 0 C0.66 0 1.32 0 2 0 C2.66 2.31 3.32 4.62 4 7 C4.99 6.67 5.98 6.34 7 6 C6.9278125 6.87398438 6.855625 7.74796875 6.78125 8.6484375 C6.01642782 18.78233139 5.89526011 28.84023072 6 39 C5.34 39 4.68 39 4 39 C4.061875 40.546875 4.061875 40.546875 4.125 42.125 C3.9807894 46.5955286 2.98943912 50.02112176 1 54 C-1.5625 54.625 -1.5625 54.625 -4 55 C-3.66226562 54.2265625 -3.32453125 53.453125 -2.9765625 52.65625 C-2.53054688 51.6146875 -2.08453125 50.573125 -1.625 49.5 C-1.18414062 48.4790625 -0.74328125 47.458125 -0.2890625 46.40625 C2.58717326 38.8060149 3.34023782 32.19115831 3.3125 24.125 C3.32861328 23.19558594 3.34472656 22.26617187 3.36132812 21.30859375 C3.36539047 15.48318898 2.55954098 10.59660986 0.64526367 5.08935547 C0 3 0 3 0 0 Z " fill="#D7CC35" transform="translate(376,300)"/>
<path d="M0 0 C2.56682486 0.92690898 4.69844789 1.75978052 6.84375 3.46875 C9.27442954 5.19488475 11.38551293 5.89599699 14.25 6.6875 C15.14203125 6.93886719 16.0340625 7.19023437 16.953125 7.44921875 C17.62859375 7.63097656 18.3040625 7.81273437 19 8 C19 8.33 19 8.66 19 9 C23.62459244 10.17700048 28.07866462 10.11408412 32.8125 10.0625 C33.60076172 10.05798828 34.38902344 10.05347656 35.20117188 10.04882812 C37.13414761 10.03711312 39.06708393 10.01917998 41 10 C41 9.34 41 8.68 41 8 C41.99 8 42.98 8 44 8 C44.33 7.34 44.66 6.68 45 6 C46.32 6.66 47.64 7.32 49 8 C47.77493102 8.65357278 46.54470484 9.29748233 45.3125 9.9375 C44.62800781 10.29714844 43.94351563 10.65679687 43.23828125 11.02734375 C34.58477572 14.78776762 23.8741357 14.05080657 15.1875 10.9375 C9.45714275 8.48664868 4.50163729 5.32715523 0 1 C0 0.67 0 0.34 0 0 Z " fill="#C7BD34" transform="translate(285,332)"/>
<path d="M0 0 C1.485 0.495 1.485 0.495 3 1 C-4.42935101 10.18893414 -15.72772349 15.81723957 -27 19 C-29.375 18.625 -29.375 18.625 -31 18 C-30.01 18 -29.02 18 -28 18 C-27.67 16.68 -27.34 15.36 -27 14 C-23.62182575 13.15545644 -21.32534757 12.89155081 -18 14 C-18 13.34 -18 12.68 -18 12 C-17.43410156 11.89042969 -16.86820312 11.78085937 -16.28515625 11.66796875 C-15.55167969 11.50941406 -14.81820313 11.35085938 -14.0625 11.1875 C-13.33160156 11.03667969 -12.60070312 10.88585937 -11.84765625 10.73046875 C-10.93306641 10.36888672 -10.93306641 10.36888672 -10 10 C-9.67 9.01 -9.34 8.02 -9 7 C-8.01 7.33 -7.02 7.66 -6 8 C-5.7525 7.236875 -5.505 6.47375 -5.25 5.6875 C-3.8744729 2.73011673 -2.84548949 1.55208517 0 0 Z " fill="#141002" transform="translate(366,358)"/>
<path d="M0 0 C0.66 0.33 1.32 0.66 2 1 C1.18144531 1.80695313 0.36289062 2.61390625 -0.48046875 3.4453125 C-3.77841341 7.4028461 -3.58585401 10.91257337 -3.3125 15.875 C-3.27866211 17.050625 -3.27866211 17.050625 -3.24414062 18.25 C-3.18568018 20.1675026 -3.09601283 22.0840106 -3 24 C-2.39671875 24.2990625 -1.7934375 24.598125 -1.171875 24.90625 C1.31459727 26.15843028 3.68230135 27.45486756 6 29 C6 29.66 6 30.32 6 31 C6.78375 31.103125 7.5675 31.20625 8.375 31.3125 C11 32 11 32 13 35 C6.30921349 33.28441372 -0.52887247 29.62425963 -4.5 23.8125 C-6.95465186 19.21002777 -7.54797657 15.15685096 -7 10 C-5.37607291 5.77778957 -3.3578219 3.01046101 0 0 Z " fill="#D3CA41" transform="translate(302,223)"/>
<path d="M0 0 C1.8125 1.5 1.8125 1.5 3 3 C2.34 3.66 1.68 4.32 1 5 C1 4.34 1 3.68 1 3 C-1.475 2.505 -1.475 2.505 -4 2 C-4 2.66 -4 3.32 -4 4 C-4.66 4.66 -5.32 5.32 -6 6 C-4.68 5.67 -3.36 5.34 -2 5 C-4.83332467 8.04516202 -7.65500311 10.16868601 -11.25 12.25 C-12.14203125 12.77078125 -13.0340625 13.2915625 -13.953125 13.828125 C-14.62859375 14.21484375 -15.3040625 14.6015625 -16 15 C-16.33 14.34 -16.66 13.68 -17 13 C-16.67 12.34 -16.34 11.68 -16 11 C-14.68 11 -13.36 11 -12 11 C-12 10.34 -12 9.68 -12 9 C-11.34 8.67 -10.68 8.34 -10 8 C-10 6.68 -10 5.36 -10 4 C-10.66 4 -11.32 4 -12 4 C-11.67 3.01 -11.34 2.02 -11 1 C-9.68 1 -8.36 1 -7 1 C-4.45132831 -0.27433584 -2.82594567 -0.27570202 0 0 Z " fill="#F4E022" transform="translate(141,319)"/>
<path d="M0 0 C-3.03866235 1.94224243 -6.08145024 3.87792695 -9.125 5.8125 C-9.9809375 6.35970703 -10.836875 6.90691406 -11.71875 7.47070312 C-16.05636229 10.22341861 -20.34384401 12.82458286 -25 15 C-23.51697598 10.55092795 -19.91714499 8.25420608 -16 6 C-15.34 6 -14.68 6 -14 6 C-13.67 4.68 -13.34 3.36 -13 2 C-11.88625 1.814375 -11.88625 1.814375 -10.75 1.625 C-8.03080536 1.1382925 -8.03080536 1.1382925 -5.9375 -0.125 C-3.51199432 -1.22038966 -2.48774391 -0.73442752 0 0 Z " fill="#141001" transform="translate(366,220)"/>
<path d="M0 0 C0 0.66 0 1.32 0 2 C-0.66 2 -1.32 2 -2 2 C-2 2.66 -2 3.32 -2 4 C-3.32 4.33 -4.64 4.66 -6 5 C-5.67 5.66 -5.34 6.32 -5 7 C-15.56 6.67 -26.12 6.34 -37 6 C-37 5.67 -37 5.34 -37 5 C-36.42668945 4.98541748 -35.85337891 4.97083496 -35.26269531 4.95581055 C-23.54031694 4.62313575 -10.98168247 0 0 0 Z " fill="#D9CE37" transform="translate(195,374)"/>
<path d="M0 0 C3.97233702 1.27627344 7.79626675 2.70847644 11.6171875 4.3828125 C12.63554687 4.82753906 13.65390625 5.27226562 14.703125 5.73046875 C16.27320313 6.42076172 16.27320313 6.42076172 17.875 7.125 C18.94492187 7.59292969 20.01484375 8.06085938 21.1171875 8.54296875 C23.7458176 9.69299442 26.37337473 10.84540449 29 12 C29 12.99 29 13.98 29 15 C27.35 15 25.7 15 24 15 C23.91234375 14.36964844 23.8246875 13.73929687 23.734375 13.08984375 C23.22356171 10.88798532 23.22356171 10.88798532 21.390625 10.12890625 C20.68421875 9.94199219 19.9778125 9.75507813 19.25 9.5625 C15.10886487 8.34019721 11.05235712 6.9950877 7 5.5 C5.329375 4.89671875 5.329375 4.89671875 3.625 4.28125 C2.75875 3.8584375 1.8925 3.435625 1 3 C0.67 2.01 0.34 1.02 0 0 Z " fill="#DBD348" transform="translate(294,292)"/>
<path d="M0 0 C2.56682486 0.92690898 4.69844789 1.75978052 6.84375 3.46875 C9.27442954 5.19488475 11.38551293 5.89599699 14.25 6.6875 C15.14203125 6.93886719 16.0340625 7.19023437 16.953125 7.44921875 C17.62859375 7.63097656 18.3040625 7.81273437 19 8 C19 8.33 19 8.66 19 9 C21.475 9.495 21.475 9.495 24 10 C23.34 10.66 22.68 11.32 22 12 C13.74328171 11.79358204 5.82477177 6.51820483 0 1 C0 0.67 0 0.34 0 0 Z " fill="#E0D237" transform="translate(285,332)"/>
<path d="M0 0 C2.68411272 2.34859863 3.89106571 4.25107677 4.40625 7.79296875 C4.59547741 14.13997138 4.36249853 18.26357302 0 23 C-0.99 23.66 -1.98 24.32 -3 25 C-3 24.01 -3 23.02 -3 22 C-2.34 22 -1.68 22 -1 22 C1.16196558 14.29799764 1.29818638 7.95139159 0 0 Z " fill="#DDD240" transform="translate(337,314)"/>
<path d="M0 0 C0.66 0 1.32 0 2 0 C2.66 1.98 3.32 3.96 4 6 C3.24460937 5.79503906 2.48921875 5.59007812 1.7109375 5.37890625 C-9.46679091 2.64337318 -20.53685276 2.28182962 -32 2 C-32 1.67 -32 1.34 -32 1 C-27.6041806 0.97092416 -23.20838601 0.9531756 -18.8125 0.9375 C-17.56662109 0.92912109 -16.32074219 0.92074219 -15.03710938 0.91210938 C-13.83505859 0.90888672 -12.63300781 0.90566406 -11.39453125 0.90234375 C-9.73707886 0.89448853 -9.73707886 0.89448853 -8.04614258 0.88647461 C-5.24200621 0.99098077 -2.72582671 1.35902041 0 2 C0 1.34 0 0.68 0 0 Z " fill="#BDB22E" transform="translate(337,185)"/>
<path d="M0 0 C0.66 0 1.32 0 2 0 C1.68289063 1.27746094 1.36578125 2.55492187 1.0390625 3.87109375 C-0.08685689 8.93773099 -0.43228159 13.88720776 -0.625 19.0625 C-0.66367187 19.92810547 -0.70234375 20.79371094 -0.7421875 21.68554688 C-0.83520481 23.79006359 -0.91862669 25.8950009 -1 28 C-5.54966733 21.175499 -3.03468835 10.73336547 -1.53515625 3.046875 C-1 1 -1 1 0 0 Z " fill="#DFD13E" transform="translate(258,219)"/>
<path d="M0 0 C0.57621094 0.72058594 1.15242187 1.44117188 1.74609375 2.18359375 C3.17449579 3.9684774 4.60404328 5.75244547 6.03515625 7.53515625 C6.70417969 8.36917969 7.37320313 9.20320313 8.0625 10.0625 C8.73410156 10.89910156 9.40570313 11.73570312 10.09765625 12.59765625 C11.76808357 14.70712812 13.39765988 16.83858794 15 19 C12.6875 18.8125 12.6875 18.8125 10 18 C7 13.96551724 7 13.96551724 7 11 C6.01 11 5.02 11 4 11 C3.34 9.68 2.68 8.36 2 7 C1.01 7 0.02 7 -1 7 C-1.33 5.68 -1.66 4.36 -2 3 C-1.34 3 -0.68 3 0 3 C0 2.01 0 1.02 0 0 Z " fill="#DED334" transform="translate(246,342)"/>
<path d="M0 0 C1.32 0.33 2.64 0.66 4 1 C3.56429688 1.37769531 3.12859375 1.75539062 2.6796875 2.14453125 C-2.65116666 7.07153282 -5.80374242 12.52552952 -9 19 C-9.33 19 -9.66 19 -10 19 C-10.625 16.125 -10.625 16.125 -11 13 C-10.34 12.34 -9.68 11.68 -9 11 C-8.67 11.33 -8.34 11.66 -8 12 C-7.67 10.35 -7.34 8.7 -7 7 C-6.01 6.67 -5.02 6.34 -4 6 C-3.67 5.01 -3.34 4.02 -3 3 C-2.01 3 -1.02 3 0 3 C0 2.01 0 1.02 0 0 Z " fill="#E0D23C" transform="translate(270,199)"/>
<path d="M0 0 C-1.58941406 0.93972656 -1.58941406 0.93972656 -3.2109375 1.8984375 C-4.5990511 2.72380234 -5.98706686 3.54933174 -7.375 4.375 C-8.07367188 4.7875 -8.77234375 5.2 -9.4921875 5.625 C-10.1625 6.02460938 -10.8328125 6.42421875 -11.5234375 6.8359375 C-12.14138184 7.20251465 -12.75932617 7.5690918 -13.39599609 7.94677734 C-15.16790733 9.03259894 -15.16790733 9.03259894 -17 11 C-17.66 9.68 -18.32 8.36 -19 7 C-18 6 -18 6 -15.4375 5.9375 C-14.2309375 5.9684375 -14.2309375 5.9684375 -13 6 C-13 4.35 -13 2.7 -13 1 C-10.03 1.495 -10.03 1.495 -7 2 C-6.67 1.34 -6.34 0.68 -6 0 C-2.49056604 -1.24528302 -2.49056604 -1.24528302 0 0 Z " fill="#E0D438" transform="translate(262,330)"/>
<path d="M0 0 C-3.52550719 3.33691565 -6.1991426 3.35340073 -10.953125 3.29296875 C-11.94345734 3.28660149 -11.94345734 3.28660149 -12.95379639 3.28010559 C-15.05295391 3.26337435 -17.15113496 3.22573551 -19.25 3.1875 C-20.67706942 3.17244584 -22.10415396 3.15875871 -23.53125 3.14648438 C-27.02114817 3.11349001 -30.5104787 3.06174743 -34 3 C-34 2.67 -34 2.34 -34 2 C-33.38592285 1.98018066 -32.7718457 1.96036133 -32.13916016 1.93994141 C-29.30074617 1.84346198 -26.46294843 1.73429198 -23.625 1.625 C-22.65949219 1.5940625 -21.69398438 1.563125 -20.69921875 1.53125 C-14.94858051 1.29968068 -9.57569451 0.65931536 -3.97412109 -0.68212891 C-2 -1 -2 -1 0 0 Z " fill="#CAC03B" transform="translate(341,377)"/>
<path d="M0 0 C0.66 0.66 1.32 1.32 2 2 C-2.53781513 3.2605042 -2.53781513 3.2605042 -4.71875 2.03125 C-7.94475537 0.5729188 -10.73118501 0.80983676 -14.25 0.875 C-15.51328125 0.89304688 -16.7765625 0.91109375 -18.078125 0.9296875 C-19.04234375 0.95289063 -20.0065625 0.97609375 -21 1 C-15.53545132 -4.46454868 -6.61150661 -2.05184688 0 0 Z " fill="#CFC43B" transform="translate(325,222)"/>
<path d="M0 0 C0.99 0.33 1.98 0.66 3 1 C3 1.66 3 2.32 3 3 C3.66 3 4.32 3 5 3 C5 3.66 5 4.32 5 5 C8.465 4.505 8.465 4.505 12 4 C12.33 4.66 12.66 5.32 13 6 C12.01 6 11.02 6 10 6 C10 6.66 10 7.32 10 8 C10.99 8.66 11.98 9.32 13 10 C13 10.66 13 11.32 13 12 C7.78220912 10.57696612 4.37194736 7.0699042 1 3 C0.67 2.01 0.34 1.02 0 0 Z " fill="#E3D539" transform="translate(144,331)"/>
<path d="M0 0 C0.33 0 0.66 0 1 0 C1.70216124 7.54823336 -0.34981986 16.12276748 -4.63671875 22.39453125 C-5.08660156 22.92433594 -5.53648437 23.45414062 -6 24 C-6.33 23.01 -6.66 22.02 -7 21 C-6.319375 19.88625 -6.319375 19.88625 -5.625 18.75 C-3.66517216 15.43336827 -3.50788386 12.80912892 -3 9 C-2.10360116 5.96193473 -1.07420104 2.9793878 0 0 Z " fill="#191300" transform="translate(379,328)"/>
<path d="M0 0 C0 0.66 0 1.32 0 2 C-1.09699219 1.91621094 -2.19398438 1.83242187 -3.32421875 1.74609375 C-4.77862096 1.64287811 -6.23304951 1.54003306 -7.6875 1.4375 C-8.40873047 1.38142578 -9.12996094 1.32535156 -9.87304688 1.26757812 C-13.77314064 1.00044841 -17.21111028 0.99112404 -21 2 C-21.33 1.34 -21.66 0.68 -22 0 C-14.60464468 -2.15137609 -7.15957493 -3.69526448 0 0 Z " fill="#140F01" transform="translate(325,220)"/>
<path d="M0 0 C0.33 0.99 0.66 1.98 1 3 C-1.80804268 5.96404505 -4.18315774 8.44499019 -8 10 C-8 9.01 -8 8.02 -8 7 C-7.34 7 -6.68 7 -6 7 C-6.33 5.68 -6.66 4.36 -7 3 C-3.375 0 -3.375 0 0 0 Z " fill="#EBDB2D" transform="translate(282,189)"/>
<path d="M0 0 C0.33 0 0.66 0 1 0 C1.38897161 1.62171239 1.76078298 3.24754925 2.125 4.875 C2.33382813 5.77992188 2.54265625 6.68484375 2.7578125 7.6171875 C2.83773438 8.40351563 2.91765625 9.18984375 3 10 C2.34 10.66 1.68 11.32 1 12 C0.29289322 13.64991582 -0.37943989 15.31562256 -1 17 C-1.66 17 -2.32 17 -3 17 C-2.69268013 14.35346869 -2.37940678 11.707885 -2.0625 9.0625 C-1.97548828 8.30775391 -1.88847656 7.55300781 -1.79882812 6.77539062 C-1.11328125 1.11328125 -1.11328125 1.11328125 0 0 Z " fill="#0A0701" transform="translate(342,318)"/>
<path d="M0 0 C0.66 0 1.32 0 2 0 C2.66 2.31 3.32 4.62 4 7 C4.99 6.67 5.98 6.34 7 6 C6.67 9.3 6.34 12.6 6 16 C5.34 16 4.68 16 4 16 C3.32815382 13.89748139 2.66269032 11.79292237 2 9.6875 C1.443125 7.92986328 1.443125 7.92986328 0.875 6.13671875 C0 3 0 3 0 0 Z " fill="#E6DA3B" transform="translate(376,300)"/>
<path d="M0 0 C0.66 0 1.32 0 2 0 C2 7.59 2 15.18 2 23 C1.01 23 0.02 23 -1 23 C-0.67 15.41 -0.34 7.82 0 0 Z " fill="#D1C140" transform="translate(380,316)"/>
<path d="M0 0 C0.99 2.31 1.98 4.62 3 7 C2.01 7 1.02 7 0 7 C0 6.01 0 5.02 0 4 C-0.99 4 -1.98 4 -3 4 C-3 4.66 -3 5.32 -3 6 C-3.99 6 -4.98 6 -6 6 C-6 5.34 -6 4.68 -6 4 C-6.66 3.67 -7.32 3.34 -8 3 C-3.375 0 -3.375 0 0 0 Z " fill="#1E1A02" transform="translate(141,325)"/>
<path d="M0 0 C-1.55789683 1.13136586 -3.12153857 2.25482321 -4.6875 3.375 C-5.55761719 4.00148438 -6.42773438 4.62796875 -7.32421875 5.2734375 C-9.83596952 6.89415843 -12.19299187 7.99858088 -15 9 C-14.67 7.68 -14.34 6.36 -14 5 C-12.68 5 -11.36 5 -10 5 C-10 4.34 -10 3.68 -10 3 C-6.96842923 0.29324039 -3.92805824 -1.96402912 0 0 Z " fill="#DDD23F" transform="translate(139,325)"/>
<path d="M0 0 C0.66 0.33 1.32 0.66 2 1 C0.43551329 6.6143991 -1.16395187 11.86810338 -4 17 C-5.4038527 13.25046938 -4.55240617 11.02719095 -3.125 7.375 C-2.75632813 6.41335938 -2.38765625 5.45171875 -2.0078125 4.4609375 C-1 2 -1 2 0 0 Z " fill="#1D1802" transform="translate(220,340)"/>
<path d="M0 0 C0.91458984 0.29003906 0.91458984 0.29003906 1.84765625 0.5859375 C-0.2965436 1.92196188 -2.44257793 3.25485754 -4.58984375 4.5859375 C-5.20150391 4.9675 -5.81316406 5.3490625 -6.44335938 5.7421875 C-11.0390625 8.5859375 -11.0390625 8.5859375 -12.15234375 8.5859375 C-12.15234375 6.9359375 -12.15234375 5.2859375 -12.15234375 3.5859375 C-11.06953125 3.43125 -11.06953125 3.43125 -9.96484375 3.2734375 C-7.06860846 2.72427974 -7.06860846 2.72427974 -4.58984375 0.9609375 C-2.15234375 -0.4140625 -2.15234375 -0.4140625 0 0 Z " fill="#E3D73E" transform="translate(121.15234375,334.4140625)"/>
<path d="M0 0 C0.66 0.33 1.32 0.66 2 1 C0.64266013 2.35130724 -0.73674638 3.6804718 -2.125 5 C-3.27355469 6.11375 -3.27355469 6.11375 -4.4453125 7.25 C-7.53463627 9.36623402 -9.33164074 9.34025361 -13 9 C-10.59497637 6.36479259 -7.9814151 4.59697057 -4.9375 2.75 C-4.05964844 2.20859375 -3.18179687 1.6671875 -2.27734375 1.109375 C-1.52582031 0.74328125 -0.77429688 0.3771875 0 0 Z " fill="#221A03" transform="translate(269,325)"/>
<path d="M0 0 C0 0.66 0 1.32 0 2 C1.98 1.67 3.96 1.34 6 1 C9 4.75 9 4.75 9 7 C-0.59453303 4.10933941 -0.59453303 4.10933941 -4 1 C-2 0 -2 0 0 0 Z " fill="#231C04" transform="translate(311,296)"/>
<path d="M0 0 C0 0.99 0 1.98 0 3 C0.66 3.33 1.32 3.66 2 4 C-1.82989106 5.80230168 -4.78121808 6.19622241 -9 6 C-3.2 0 -3.2 0 0 0 Z " fill="#E1D830" transform="translate(349,231)"/>
<path d="M0 0 C1 3 1 3 0.0390625 4.9375 C-0.42757812 5.618125 -0.89421875 6.29875 -1.375 7 C-3.01817963 9.42346046 -4.06299198 11.18897593 -5 14 C-6.98 14.33 -8.96 14.66 -11 15 C-10.62488281 14.5875 -10.24976563 14.175 -9.86328125 13.75 C-6.04203965 9.43786842 -2.91486912 4.96559562 0 0 Z " fill="#DBD141" transform="translate(217,353)"/>
<path d="M0 0 C0 0.66 0 1.32 0 2 C-0.66 2 -1.32 2 -2 2 C-1.67 2.66 -1.34 3.32 -1 4 C-0.01 4.33 0.98 4.66 2 5 C1.67 5.99 1.34 6.98 1 8 C-1.97 6.35 -4.94 4.7 -8 3 C-5.48696401 0.48696401 -3.51117809 0 0 0 Z " fill="#191602" transform="translate(291,283)"/>
<path d="M0 0 C1.65 0.33 3.3 0.66 5 1 C2.31549368 4.474067 -0.80098495 5.16019699 -5 6 C-8.9375 5.625 -8.9375 5.625 -12 5 C-12 4.67 -12 4.34 -12 4 C-9.03 4 -6.06 4 -3 4 C-3 3.34 -3 2.68 -3 2 C-2.01 2 -1.02 2 0 2 C0 1.34 0 0.68 0 0 Z " fill="#DED336" transform="translate(329,338)"/>
<path d="M0 0 C2.31 0 4.62 0 7 0 C4.01737882 1.98841412 1.02359325 3.53671732 -2.1875 5.125 C-3.81751953 5.93324219 -3.81751953 5.93324219 -5.48046875 6.7578125 C-6.31191406 7.16773438 -7.14335937 7.57765625 -8 8 C-6.3203125 4.140625 -6.3203125 4.140625 -3.4375 2.875 C-2.633125 2.58625 -1.82875 2.2975 -1 2 C-0.67 1.34 -0.34 0.68 0 0 Z " fill="#DACF43" transform="translate(271,321)"/>
<path d="M0 0 C5.44208234 0.34013015 8.93668198 3.70296528 13 7 C12.01 7.33 11.02 7.66 10 8 C9.01 7.34 8.02 6.68 7 6 C7 5.34 7 4.68 7 4 C5.35 4 3.7 4 2 4 C2 3.34 2 2.68 2 2 C1.34 2 0.68 2 0 2 C0 1.34 0 0.68 0 0 Z " fill="#DDD23A" transform="translate(324,306)"/>
<path d="M0 0 C0.33 0 0.66 0 1 0 C1.09706112 6.11485027 0.77040851 11.93303301 0 18 C-0.99 18 -1.98 18 -3 18 C-2.01 12.06 -1.02 6.12 0 0 Z " fill="#CCC23F" transform="translate(224,327)"/>
<path d="M0 0 C0.33 0.99 0.66 1.98 1 3 C-2.34118082 6.57983659 -4.73768141 8.89716734 -9.75 9.125 C-10.4925 9.08375 -11.235 9.0425 -12 9 C-10 7 -10 7 -7.125 5.625 C-4.10672133 4.05549509 -2.25189421 2.51172816 0 0 Z " fill="#251E02" transform="translate(338,335)"/>
<path d="M0 0 C1.32 0.33 2.64 0.66 4 1 C4 2.32 4 3.64 4 5 C4.66 5 5.32 5 6 5 C6 6.65 6 8.3 6 10 C5.34 10 4.68 10 4 10 C4 10.66 4 11.32 4 12 C2.68 11.67 1.36 11.34 0 11 C0.99 10.34 1.98 9.68 3 9 C2.44271087 5.65626525 1.64826111 2.96687001 0 0 Z " fill="#D5C93C" transform="translate(364,209)"/>
<path d="M0 0 C1.15224028 0.92961422 2.29659176 1.8690125 3.4375 2.8125 C4.07558594 3.33457031 4.71367187 3.85664063 5.37109375 4.39453125 C7 6 7 6 8 9 C5 9 5 9 3.39453125 7.46875 C2.87246094 6.8190625 2.35039062 6.169375 1.8125 5.5 C1.28269531 4.8503125 0.75289062 4.200625 0.20703125 3.53125 C-0.19128906 3.0259375 -0.58960938 2.520625 -1 2 C-0.67 1.34 -0.34 0.68 0 0 Z " fill="#1D1701" transform="translate(254,350)"/>
<path d="M0 0 C1.4606285 2.64738916 2 3.89448334 2 7 C0.68 7.33 -0.64 7.66 -2 8 C-2.6875 5.6875 -2.6875 5.6875 -3 3 C-1.5625 1.1875 -1.5625 1.1875 0 0 Z " fill="#121003" transform="translate(269,204)"/>
<path d="M0 0 C0.68835938 0.59748047 0.68835938 0.59748047 1.390625 1.20703125 C4.52271585 3.91142062 7.63877459 6.57991771 11 9 C6.49068763 8.46949266 3.51318661 6.8595705 0 4 C0 2.68 0 1.36 0 0 Z " fill="#211D02" transform="translate(146,335)"/>
<path d="M0 0 C0.66 0 1.32 0 2 0 C2 0.99 2 1.98 2 3 C1.34 3 0.68 3 0 3 C0.495 3.61875 0.99 4.2375 1.5 4.875 C3 7 3 7 3 9 C-0.36591866 7.55746343 -2.51047079 5.66735273 -5 3 C-3.68 3.33 -2.36 3.66 -1 4 C-0.67 2.68 -0.34 1.36 0 0 Z " fill="#191504" transform="translate(126,359)"/>
<path d="M0 0 C0 0.99 0 1.98 0 3 C-1.36125 3.4021875 -1.36125 3.4021875 -2.75 3.8125 C-5.71471963 4.89576294 -7.6169754 5.98359457 -10 8 C-9.9375 6.25 -9.9375 6.25 -9 4 C-6.29950956 1.99159505 -3.44873267 0 0 0 Z " fill="#211C03" transform="translate(256,334)"/>
<path d="M0 0 C1.32 0 2.64 0 4 0 C4 0.66 4 1.32 4 2 C5.32 1.67 6.64 1.34 8 1 C8 2.32 8 3.64 8 5 C9.32 5.33 10.64 5.66 12 6 C11.34 6.66 10.68 7.32 10 8 C8.33055479 6.85821872 6.6645052 5.71147095 5 4.5625 C4.071875 3.92441406 3.14375 3.28632813 2.1875 2.62890625 C1.465625 2.09136719 0.74375 1.55382812 0 1 C0 0.67 0 0.34 0 0 Z " fill="#1F1902" transform="translate(327,306)"/>
<path d="M0 0 C0 0.66 0 1.32 0 2 C-0.928125 2.3403125 -0.928125 2.3403125 -1.875 2.6875 C-4.61410209 4.37929835 -5.05024472 5.99244161 -6 9 C-6.33 8.34 -6.66 7.68 -7 7 C-8.32 7.33 -9.64 7.66 -11 8 C-3.21621622 0 -3.21621622 0 0 0 Z " fill="#1E1901" transform="translate(283,194)"/>
<path d="M0 0 C4.455 2.97 4.455 2.97 9 6 C8.34 6.66 7.68 7.32 7 8 C4.0625 6.8125 4.0625 6.8125 1 5 C0.67 3.35 0.34 1.7 0 0 Z " fill="#D7CE38" transform="translate(123,364)"/>
<path d="M0 0 C4.455 1.98 4.455 1.98 9 4 C8.01 4.66 7.02 5.32 6 6 C2.8125 5.125 2.8125 5.125 0 4 C0 2.68 0 1.36 0 0 Z " fill="#DFD434" transform="translate(285,287)"/>
<path d="M0 0 C6.57142857 4 6.57142857 4 8 8 C6.68 8.33 5.36 8.66 4 9 C0 2.25 0 2.25 0 0 Z " fill="#1B1403" transform="translate(361,283)"/>
<path d="M0 0 C0.66 0.66 1.32 1.32 2 2 C-0.64 4.31 -3.28 6.62 -6 9 C-6 8.01 -6 7.02 -6 6 C-4.68 5.34 -3.36 4.68 -2 4 C-2 3.01 -2 2.02 -2 1 C-1.34 0.67 -0.68 0.34 0 0 Z " fill="#1E1700" transform="translate(210,360)"/>
<path d="M0 0 C2.9555377 2.75170751 5.11563315 5.41970299 7 9 C7 9.66 7 10.32 7 11 C4.32423308 9.99382318 3.2214892 9.45785454 1.953125 6.8359375 C1.72109375 6.02382813 1.4890625 5.21171875 1.25 4.375 C1.00765625 3.55773437 0.7653125 2.74046875 0.515625 1.8984375 C0.34546875 1.27195312 0.1753125 0.64546875 0 0 Z " fill="#231B02" transform="translate(369,291)"/>
<path d="M0 0 C-0.33 1.32 -0.66 2.64 -1 4 C-3.97 4.66 -6.94 5.32 -10 6 C-8.66666667 5 -7.33333333 4 -6 3 C-5.29875 2.443125 -4.5975 1.88625 -3.875 1.3125 C-2 0 -2 0 0 0 Z " fill="#DFD43E" transform="translate(206,368)"/>
<path d="M0 0 C2 1 4 2 6 3 C6.73075648 5.3140622 7.40138258 7.64828869 8 10 C4.71211176 6.88983545 2.16264012 3.98381075 0 0 Z " fill="#221C02" transform="translate(113,352)"/>
<path d="M0 0 C2.31 1.65 4.62 3.3 7 5 C3.86650268 6.04449911 3.01031744 5.93423645 0 5 C0 3.35 0 1.7 0 0 Z " fill="#DDD23B" transform="translate(273,278)"/>
<path d="M0 0 C2.875 -0.125 2.875 -0.125 6 0 C6.66 0.66 7.32 1.32 8 2 C9.31747324 2.69748583 10.64914193 3.36959957 12 4 C8.35839192 5.21386936 7.66834531 4.6674695 4.3125 3.0625 C3.10013672 2.49208984 3.10013672 2.49208984 1.86328125 1.91015625 C1.24839844 1.60980469 0.63351562 1.30945313 0 1 C0 0.67 0 0.34 0 0 Z " fill="#D9CE3F" transform="translate(320,260)"/>
<path d="M0 0 C0.66 0 1.32 0 2 0 C2.66 3.3 3.32 6.6 4 10 C3.01 10.495 3.01 10.495 2 11 C0.57741188 7.17679443 -0.24042276 4.08718695 0 0 Z " fill="#1D1600" transform="translate(258,248)"/>
<path d="M0 0 C3.3 1.65 6.6 3.3 10 5 C9.34 5.66 8.68 6.32 8 7 C5.875 6.625 5.875 6.625 4 6 C4 5.34 4 4.68 4 4 C3.34 4 2.68 4 2 4 C2 3.34 2 2.68 2 2 C1.34 2 0.68 2 0 2 C0 1.34 0 0.68 0 0 Z " fill="#D7D03D" transform="translate(268,366)"/>
<path d="M0 0 C0 3 0 3 -1 5 C-4.75775182 6.92965634 -5.72190919 7.0695227 -10 6 C-6.7 4.02 -3.4 2.04 0 0 Z " fill="#D6CB42" transform="translate(362,365)"/>
<path d="M0 0 C2.18092036 2.07858979 3.96390469 4.21856618 5.6875 6.6875 C6.12449219 7.31011719 6.56148438 7.93273437 7.01171875 8.57421875 C7.33785156 9.04472656 7.66398437 9.51523437 8 10 C7.01 10 6.02 10 5 10 C2 6.66666667 2 6.66666667 2 4 C1.34 4 0.68 4 0 4 C0 2.68 0 1.36 0 0 Z " fill="#D1C83E" transform="translate(111,350)"/>
<path d="M0 0 C0.66 0.33 1.32 0.66 2 1 C1.01 2.485 1.01 2.485 0 4 C-0.66 4 -1.32 4 -2 4 C-1.67 5.98 -1.34 7.96 -1 10 C-2.5625 8.25 -2.5625 8.25 -4 6 C-3.875 3.875 -3.875 3.875 -3 2 C-2.01 1.34 -1.02 0.68 0 0 Z " fill="#221B02" transform="translate(113,340)"/>
<path d="M0 0 C4.59306496 1.4859916 7.43569245 3.85014682 11 7 C7.41584854 7 6.58796261 6.21108216 3.8125 4.0625 C3.09707031 3.51722656 2.38164062 2.97195313 1.64453125 2.41015625 C1.10183594 1.94480469 0.55914062 1.47945313 0 1 C0 0.67 0 0.34 0 0 Z " fill="#D1C941" transform="translate(285,332)"/>
<path d="M0 0 C1.98 0 3.96 0 6 0 C7 3 7 3 6 6 C3.97945196 4.35830472 1.97956942 2.69088222 0 1 C0 0.67 0 0.34 0 0 Z " fill="#121102" transform="translate(327,223)"/>
<path d="M0 0 C0.33 0.66 0.66 1.32 1 2 C-2.07999946 5.67230705 -4.2482602 6.56802365 -9 7 C-6.24479785 4.04070881 -3.53372712 1.96318174 0 0 Z " fill="#D3C940" transform="translate(358,224)"/>
<path d="M0 0 C0.33 0.66 0.66 1.32 1 2 C-0.70625501 4.78388975 -1.47626739 5.85384206 -4.6875 6.75 C-5.8321875 6.87375 -5.8321875 6.87375 -7 7 C-6.67 6.34 -6.34 5.68 -6 5 C-5.34 5 -4.68 5 -4 5 C-3.71125 4.360625 -3.4225 3.72125 -3.125 3.0625 C-2 1 -2 1 0 0 Z " fill="#E5DA36" transform="translate(363,221)"/>
<path d="M0 0 C-2.97 1.65 -5.94 3.3 -9 5 C-8 1 -8 1 -6.1875 -0.3125 C-4 -1 -4 -1 0 0 Z " fill="#1E1A01" transform="translate(366,220)"/>
<path d="M0 0 C2.31 1.65 4.62 3.3 7 5 C3 6 3 6 1 5 C1 4.01 1 3.02 1 2 C0.34 1.67 -0.32 1.34 -1 1 C-0.67 0.67 -0.34 0.34 0 0 Z " fill="#1A1402" transform="translate(284,332)"/>
<path d="M0 0 C2.625 0.9375 2.625 0.9375 5 2 C4.67 2.66 4.34 3.32 4 4 C2.35 4 0.7 4 -1 4 C-1.33 3.01 -1.66 2.02 -2 1 C-1.34 0.67 -0.68 0.34 0 0 Z " fill="#E1D42C" transform="translate(319,303)"/>
<path d="M0 0 C2 2 2 2 2 5 C2.99 5.33 3.98 5.66 5 6 C4.67 6.66 4.34 7.32 4 8 C1.69 6.35 -0.62 4.7 -3 3 C-2.01 2.01 -1.02 1.02 0 0 Z " fill="#1B1304" transform="translate(278,277)"/>
<path d="M0 0 C5.75 1.75 5.75 1.75 8 4 C7.01 4.66 6.02 5.32 5 6 C5 5.34 5 4.68 5 4 C3.02 3.34 1.04 2.68 -1 2 C-0.67 1.34 -0.34 0.68 0 0 Z " fill="#1C1701" transform="translate(332,266)"/>
<path d="M0 0 C2.375 0.25 2.375 0.25 5 1 C6.375 2.875 6.375 2.875 7 5 C6.67 5.99 6.34 6.98 6 8 C4.02 5.36 2.04 2.72 0 0 Z " fill="#DDD141" transform="translate(357,201)"/>
<path d="M0 0 C1 2 1 2 0.375 4.0625 C-1 6 -1 6 -3.625 6.75 C-4.800625 6.87375 -4.800625 6.87375 -6 7 C-4.02 4.69 -2.04 2.38 0 0 Z " fill="#CFC73B" transform="translate(369,358)"/>
<path d="M0 0 C1.14926266 0.95421808 2.29430541 1.91352045 3.4375 2.875 C4.07558594 3.40867187 4.71367187 3.94234375 5.37109375 4.4921875 C7 6 7 6 8 8 C5.6875 7.8125 5.6875 7.8125 3 7 C0 2.96551724 0 2.96551724 0 0 Z " fill="#E0D747" transform="translate(253,353)"/>
<path d="M0 0 C0.33 1.32 0.66 2.64 1 4 C-1.31 4.66 -3.62 5.32 -6 6 C-6.33 5.34 -6.66 4.68 -7 4 C-4.69 2.68 -2.38 1.36 0 0 Z " fill="#1C1400" transform="translate(132,329)"/>
<path d="M0 0 C0.99 0 1.98 0 3 0 C3.33 0.99 3.66 1.98 4 3 C2.02 3.66 0.04 4.32 -2 5 C-1.34 3.35 -0.68 1.7 0 0 Z " fill="#E0D332" transform="translate(374,350)"/>
<path d="M0 0 C0.33 0 0.66 0 1 0 C1 3.63 1 7.26 1 11 C0.01 11.33 -0.98 11.66 -2 12 C-1.34 8.04 -0.68 4.08 0 0 Z " fill="#302905" transform="translate(341,323)"/>
<path d="M0 0 C2.4375 0.75 2.4375 0.75 5 2 C5.8125 4.125 5.8125 4.125 6 6 C5.01 6.495 5.01 6.495 4 7 C0 2.25 0 2.25 0 0 Z " fill="#D8D23E" transform="translate(280,325)"/>
<path d="M0 0 C2.97 0.99 5.94 1.98 9 3 C9 3.33 9 3.66 9 4 C3.375 4.25 3.375 4.25 0 2 C0 1.34 0 0.68 0 0 Z " fill="#1D1800" transform="translate(313,258)"/>
<path d="M0 0 C2.31 1.98 4.62 3.96 7 6 C5.68 6.33 4.36 6.66 3 7 C3 6.34 3 5.68 3 5 C2.01 4.67 1.02 4.34 0 4 C0 2.68 0 1.36 0 0 Z " fill="#1D1603" transform="translate(297,246)"/>
<path d="M0 0 C1.32 0.99 2.64 1.98 4 3 C2.02 4.32 0.04 5.64 -2 7 C-1.125 2.25 -1.125 2.25 0 0 Z " fill="#191401" transform="translate(300,220)"/>
<path d="M0 0 C2 2 2 2 2 5 C-0.5 6.6875 -0.5 6.6875 -3 8 C-1.125 2.25 -1.125 2.25 0 0 Z " fill="#1C1A01" transform="translate(263,212)"/>
</svg>
