<?xml version="1.0" encoding="UTF-8"?>
<svg version="1.1" xmlns="http://www.w3.org/2000/svg" width="320" height="320">
<path d="M0 0 C105.6 0 211.2 0 320 0 C320 105.6 320 211.2 320 320 C214.4 320 108.8 320 0 320 C0 214.4 0 108.8 0 0 Z " fill="#2875C2" transform="translate(0,0)"/>
<path d="M0 0 C0 10.23 0 20.46 0 31 C-4.1058133 30.17883734 -6.55823919 29.36908921 -10.1875 27.5625 C-18.5181298 23.7396911 -26.04192085 22.82524848 -35.125 22.6875 C-35.87724854 22.66969482 -36.62949707 22.65188965 -37.40454102 22.63354492 C-45.01349781 22.6443827 -51.33262468 24.67610197 -57 30 C-58.90804631 33.81609261 -58.69397666 37.86049007 -58 42 C-53.13418274 51.80266834 -40.40756807 56.37312567 -31.01708984 60.8984375 C-16.67724306 67.84099223 -2.06861852 76.4695569 4 92 C5.51196046 97.0952998 5.26447752 102.28963136 5.3125 107.5625 C5.35600586 109.11420898 5.35600586 109.11420898 5.40039062 110.69726562 C5.49435295 122.24017542 2.4041831 130.50176786 -5.6484375 138.77734375 C-20.1649591 152.49810918 -39.83050953 154.7974113 -59.1328125 154.2890625 C-70.99654498 153.73258471 -81.60843142 150.50509802 -93 147 C-93 135.45 -93 123.9 -93 112 C-89.69589401 113.652053 -86.69209565 115.43014952 -83.5625 117.375 C-73.74957215 123.03130859 -64.95001524 125.33111344 -53.6875 125.4375 C-52.85154297 125.44773193 -52.01558594 125.45796387 -51.15429688 125.46850586 C-43.39970436 125.35823272 -36.73216431 123.55846236 -31 118 C-29.24669813 112.7400944 -29.14418294 107.8976813 -31.4375 102.8125 C-37.63157055 96.01412989 -46.3388544 92.10545203 -54.4375 88 C-71.89620014 79.11445878 -85.60832411 71.86679912 -92.23828125 52.48046875 C-95.65157399 41.36538727 -94.74650853 29.49301707 -89.5234375 19.046875 C-82.14457807 6.71508253 -71.65050297 -0.13090267 -57.85229492 -3.83886719 C-38.08609815 -8.5967942 -19.08771369 -6.36257123 0 0 Z " fill="#FAFCFC" transform="translate(294,146)"/>
<path d="M0 0 C38.28 0 76.56 0 116 0 C116 9.57 116 19.14 116 29 C102.47 29 88.94 29 75 29 C75 72.23 75 115.46 75 160 C63.78 160 52.56 160 41 160 C41 116.77 41 73.54 41 29 C27.47 29 13.94 29 0 29 C0 19.43 0 9.86 0 0 Z " fill="#FDFDFD" transform="translate(80,140)"/>
<path d="M0 0 C0.66 0 1.32 0 2 0 C2 0.66 2 1.32 2 2 C2.66 2.33 3.32 2.66 4 3 C3.67 3.99 3.34 4.98 3 6 C2.91000971 7.67483625 2.87803575 9.35306795 2.87974548 11.03031921 C2.87837082 12.06938416 2.87699615 13.1084491 2.87557983 14.17900085 C2.87917511 15.31835587 2.88277039 16.45771088 2.88647461 17.6315918 C2.88632858 18.83171906 2.88618256 20.03184631 2.8860321 21.26834106 C2.8866098 24.55940532 2.89162846 27.850407 2.89860606 31.14146018 C2.9048532 34.58078054 2.90544448 38.02010172 2.90663147 41.45942688 C2.90974076 47.97233141 2.91794875 54.48521917 2.92798096 60.99811631 C2.93915455 68.4127946 2.94465569 75.82747368 2.94967639 83.24215829 C2.96013169 98.49478356 2.9784722 113.74738573 3 129 C12.9 129.33 22.8 129.66 33 130 C32.9592334 126.13297363 32.9184668 122.26594727 32.87646484 118.28173828 C32.74353307 105.53332148 32.62153039 92.78482001 32.50522423 80.03624153 C32.43440953 72.30355536 32.35980972 64.57093997 32.27636719 56.83837891 C32.20366724 50.10044291 32.13799977 43.36248181 32.08085597 36.62439525 C32.05033748 33.05503148 32.01624434 29.48578103 31.97373581 25.91653824 C31.92646969 21.93677797 31.8949012 17.9569794 31.86474609 13.97705078 C31.8482048 12.7873468 31.83166351 11.59764282 31.81462097 10.37188721 C31.80895615 9.29212616 31.80329132 8.21236511 31.79745483 7.09988403 C31.78362794 5.68677539 31.78362794 5.68677539 31.76952171 4.24511909 C32 2 32 2 34 0 C34 43.23 34 86.46 34 131 C22.78 131 11.56 131 0 131 C0 87.77 0 44.54 0 0 Z " fill="#D9F3FD" transform="translate(121,169)"/>
<path d="M0 0 C13.53 0 27.06 0 41 0 C41 0.66 41 1.32 41 2 C28.79 2.33 16.58 2.66 4 3 C3.01477535 5.95567394 2.8639669 7.90860154 2.84178162 10.99235535 C2.82709839 12.53833153 2.82709839 12.53833153 2.81211853 14.11553955 C2.80636307 15.24554382 2.8006076 16.3755481 2.79467773 17.53979492 C2.78477814 18.73016861 2.77487854 19.9205423 2.76467896 21.14698792 C2.73848694 24.41115635 2.7166266 27.67531961 2.69667697 30.93953109 C2.67480904 34.35085287 2.6474243 37.76213021 2.62062073 41.17341614 C2.57070475 47.63316435 2.52576186 54.09293724 2.48259836 60.55273372 C2.43321663 67.90698528 2.37830197 75.26119224 2.32291877 82.61540067 C2.20911554 97.74355889 2.10227288 112.87175911 2 128 C2.66 128 3.32 128 4 128 C4 128.99 4 129.98 4 131 C3.01 131.66 2.02 132.32 1 133 C1 133.66 1 134.32 1 135 C-0.32 135 -1.64 135 -3 135 C-3 134.34 -3 133.68 -3 133 C-12.9 132.67 -22.8 132.34 -33 132 C-33 131.67 -33 131.34 -33 131 C-22.11 131 -11.22 131 0 131 C0 87.77 0 44.54 0 0 Z " fill="#3372B5" transform="translate(155,169)"/>
<path d="M0 0 C38.28 0 76.56 0 116 0 C116 9.57 116 19.14 116 29 C102.47 29 88.94 29 75 29 C75 28.67 75 28.34 75 28 C88.2 28 101.4 28 115 28 C114.505 15.625 114.505 15.625 114 3 C111.63385321 1.81692661 110.18560504 1.86264022 107.54550171 1.84178162 C106.60878128 1.8319928 105.67206085 1.82220398 104.70695496 1.81211853 C103.67621353 1.80636307 102.64547211 1.8006076 101.58349609 1.79467773 C99.95908852 1.77982834 99.95908852 1.77982834 98.30186462 1.76467896 C94.7090781 1.73299765 91.11627834 1.70828032 87.5234375 1.68359375 C85.03764495 1.66302995 82.55185594 1.64203364 80.06607056 1.62062073 C74.18356894 1.57099623 68.30104629 1.5257463 62.41849387 1.48259836 C55.06541731 1.42839765 47.71239948 1.36743593 40.359375 1.30664062 C27.23962149 1.19898663 14.11982866 1.09806919 1 1 C1 9.58 1 18.16 1 27 C14.2 27 27.4 27 41 27 C41 27.66 41 28.32 41 29 C27.47 29 13.94 29 0 29 C0 19.43 0 9.86 0 0 Z " fill="#DEF4FD" transform="translate(80,140)"/>
<path d="M0 0 C13.53 0 27.06 0 41 0 C41 0.33 41 0.66 41 1 C22.19 1.495 22.19 1.495 3 2 C1.74797759 4.50404483 1.86128674 6.22079166 1.84178162 9.0239563 C1.82709839 10.61835541 1.82709839 10.61835541 1.81211853 12.2449646 C1.80636307 13.4159671 1.8006076 14.5869696 1.79467773 15.79345703 C1.78477814 17.02269897 1.77487854 18.25194092 1.76467896 19.51843262 C1.73845605 22.89423445 1.71660855 26.27001218 1.69667697 29.64585352 C1.67483336 33.17195863 1.64743674 36.69802041 1.62062073 40.22409058 C1.57067182 46.90345171 1.52574117 53.58283687 1.48259836 60.26224506 C1.43324475 67.86556106 1.37831968 75.46883359 1.32291877 83.07210755 C1.209065 98.71469821 1.10223337 114.35732882 1 130 C0.67 130 0.34 130 0 130 C0 87.1 0 44.2 0 0 Z " fill="#417096" transform="translate(155,169)"/>
<path d="M0 0 C0.33 0 0.66 0 1 0 C1 10.56 1 21.12 1 32 C3.31 32.33 5.62 32.66 8 33 C9.33036198 33.28521667 10.65646843 33.5927375 11.97265625 33.9375 C12.64490234 34.11023438 13.31714844 34.28296875 14.00976562 34.4609375 C14.68716797 34.63882813 15.36457031 34.81671875 16.0625 35 C33.95039281 39.67082159 50.98137958 38.4243532 69 35 C68.67 35.99 68.34 36.98 68 38 C69.485 38.495 69.485 38.495 71 39 C60.783638 39.82550762 50.64431921 40.15931211 40.39697266 40.13037109 C38.07838751 40.1248898 35.75998646 40.13041958 33.44140625 40.13671875 C31.96354124 40.13605985 30.48567634 40.13478263 29.0078125 40.1328125 C28.31632111 40.13483673 27.62482971 40.13686096 26.91238403 40.13894653 C22.11502738 40.11502738 22.11502738 40.11502738 21 39 C19.906875 38.855625 18.81375 38.71125 17.6875 38.5625 C14.41291788 38.06298747 12.84748642 37.42374321 10 36 C8.824375 35.835 7.64875 35.67 6.4375 35.5 C3 35 3 35 0 33 C-0.26711404 30.44604513 -0.34849029 28.13725626 -0.29296875 25.5859375 C-0.28872391 24.85629791 -0.28447906 24.12665833 -0.28010559 23.37490845 C-0.26329353 21.04123241 -0.22563868 18.7084156 -0.1875 16.375 C-0.17245634 14.79428329 -0.15876738 13.21355307 -0.14648438 11.6328125 C-0.11338201 7.75487656 -0.06158404 3.87758402 0 0 Z " fill="#3A74AB" transform="translate(200,261)"/>
<path d="M0 0 C0.66 0.99 1.32 1.98 2 3 C-4.50294087 8.91176443 -11.20906931 9.38786348 -19.625 9.375 C-20.49930664 9.37628906 -21.37361328 9.37757813 -22.27441406 9.37890625 C-29.74648083 9.25799013 -36.05108226 7.84043353 -43 5 C-43 4.67 -43 4.34 -43 4 C-38.45194365 3.82164485 -35.1205746 4.00214565 -31 6 C-30.67 5.01 -30.34 4.02 -30 3 C-26.37 3 -22.74 3 -19 3 C-19.66 4.32 -20.32 5.64 -21 7 C-17.7 7.33 -14.4 7.66 -11 8 C-11 7.34 -11 6.68 -11 6 C-5.555 4.515 -5.555 4.515 0 3 C0 2.01 0 1.02 0 0 Z " fill="#2D79BE" transform="translate(260,263)"/>
<path d="M0 0 C4 2 4 2 6 4 C4.68 4.33 3.36 4.66 2 5 C2.165 6.13824219 2.33 7.27648437 2.5 8.44921875 C3.06010599 12.92513614 3.0794991 17.30887588 3 21.8125 C2.83796414 27.48191144 2.83796414 27.48191144 4 33 C4.66 33.33 5.32 33.66 6 34 C6 34.66 6 35.32 6 36 C4.02 35.67 2.04 35.34 0 35 C0 23.45 0 11.9 0 0 Z " fill="#D1EEFC" transform="translate(201,258)"/>
<path d="M0 0 C0 0.99 0 1.98 0 3 C-1.14597656 2.72285156 -2.29195313 2.44570312 -3.47265625 2.16015625 C-5.0025644 1.79410461 -6.53251457 1.42822853 -8.0625 1.0625 C-8.81466797 0.88009766 -9.56683594 0.69769531 -10.34179688 0.50976562 C-18.46715445 -1.42484332 -26.21977356 -2.19325261 -34.5625 -2.1875 C-36.01100342 -2.1884668 -36.01100342 -2.1884668 -37.48876953 -2.18945312 C-45.14563221 -2.13329344 -52.46778224 -1.43960476 -60 0 C-60 -0.99 -60 -1.98 -60 -3 C-39.72819531 -5.44629974 -19.88105064 -4.54424015 0 0 Z " fill="#3B78AF" transform="translate(294,143)"/>
<path d="M0 0 C0.74362793 0.05236816 1.48725586 0.10473633 2.25341797 0.15869141 C3.05908203 0.21025391 3.86474609 0.26181641 4.69482422 0.31494141 C5.95746094 0.41162109 5.95746094 0.41162109 7.24560547 0.51025391 C8.09509766 0.56697266 8.94458984 0.62369141 9.81982422 0.68212891 C11.92073997 0.82376368 14.02077881 0.97829717 16.12060547 1.13525391 C16.12060547 1.46525391 16.12060547 1.79525391 16.12060547 2.13525391 C15.20279297 2.17263672 14.28498047 2.21001953 13.33935547 2.24853516 C3.88312603 2.75511888 -3.68945707 3.38107023 -10.87939453 10.13525391 C-12.72974801 13.83596087 -12.35486923 18.09680645 -11.87939453 22.13525391 C-10.79485698 24.55059955 -9.60417129 26.08708151 -7.87939453 28.13525391 C-9.52939453 27.80525391 -11.17939453 27.47525391 -12.87939453 27.13525391 C-13.78178201 24.42809148 -13.99790756 22.89748622 -13.97705078 20.12353516 C-13.97382813 19.36621094 -13.97060547 18.60888672 -13.96728516 17.82861328 C-13.95890625 17.04292969 -13.95052734 16.25724609 -13.94189453 15.44775391 C-13.93738281 14.65046875 -13.93287109 13.85318359 -13.92822266 13.03173828 C-13.91645303 11.06621134 -13.89851801 9.10072306 -13.87939453 7.13525391 C-13.18072266 6.79751953 -12.48205078 6.45978516 -11.76220703 6.11181641 C-10.85212891 5.66580078 -9.94205078 5.21978516 -9.00439453 4.76025391 C-8.09947266 4.31939453 -7.19455078 3.87853516 -6.26220703 3.42431641 C-3.87613742 2.13349186 -2.68246253 0.1930481 0 0 Z " fill="#E1F5FB" transform="translate(247.87939453125,165.86474609375)"/>
<path d="M0 0 C1.19882813 0.00483398 1.19882813 0.00483398 2.421875 0.00976562 C3.246875 0.01814453 4.071875 0.02652344 4.921875 0.03515625 C5.76234375 0.03966797 6.6028125 0.04417969 7.46875 0.04882812 C9.53648901 0.06057664 11.60419124 0.07851103 13.671875 0.09765625 C13.671875 0.42765625 13.671875 0.75765625 13.671875 1.09765625 C12.54910156 1.1234375 11.42632812 1.14921875 10.26953125 1.17578125 C-1.67691906 1.28578642 -1.67691906 1.28578642 -12.328125 6.09765625 C-12.658125 7.08765625 -12.988125 8.07765625 -13.328125 9.09765625 C-14.318125 9.09765625 -15.308125 9.09765625 -16.328125 9.09765625 C-16.658125 13.38765625 -16.988125 17.67765625 -17.328125 22.09765625 C-19.80831253 19.61746872 -19.65174058 18.71249674 -19.703125 15.28515625 C-19.61935596 11.8604809 -19.42933105 10.28387538 -17.765625 7.22265625 C-12.45437109 2.59233233 -7.10188655 -0.05072776 0 0 Z " fill="#4377A9" transform="translate(254.328125,167.90234375)"/>
<path d="M0 0 C6.206076 -0.53706427 11.64854046 0.28060217 17.625 1.9375 C25.73647474 4.17595505 33.61403944 4.77696913 42 5 C42 5.33 42 5.66 42 6 C27.38810529 6.4042225 13.94062183 5.90266517 0 1 C0 0.67 0 0.34 0 0 Z " fill="#CEEBF6" transform="translate(208,294)"/>
<path d="M0 0 C0.66 0.33 1.32 0.66 2 1 C1.67 1.66 1.34 2.32 1 3 C1.99 3.33 2.98 3.66 4 4 C-6.36053092 4.83360594 -16.6094206 5.12288464 -27 5 C-27 4.67 -27 4.34 -27 4 C-26.2886792 3.91435791 -25.5773584 3.82871582 -24.84448242 3.74047852 C-21.62508937 3.35103793 -18.40629819 2.9568257 -15.1875 2.5625 C-14.06794922 2.42779297 -12.94839844 2.29308594 -11.79492188 2.15429688 C-10.72177734 2.02216797 -9.64863281 1.89003906 -8.54296875 1.75390625 C-7.55321045 1.63345947 -6.56345215 1.5130127 -5.54370117 1.38891602 C-2.88587629 1.05596634 -2.88587629 1.05596634 0 0 Z " fill="#417BB4" transform="translate(267,296)"/>
<path d="M0 0 C1.65 0 3.3 0 5 0 C5 0.66 5 1.32 5 2 C5.66 2 6.32 2 7 2 C7 2.66 7 3.32 7 4 C8.32 4.33 9.64 4.66 11 5 C11 6.32 11 7.64 11 9 C11.66 9 12.32 9 13 9 C13 13.62 13 18.24 13 23 C12.34 23 11.68 23 11 23 C11.04640625 22.27554687 11.0928125 21.55109375 11.140625 20.8046875 C11.31263231 16.19734876 11.39808017 12.85985317 9.4375 8.625 C6.53774791 5.50219006 3.5318419 3.37720128 0 1 C0 0.67 0 0.34 0 0 Z " fill="#DFF5FB" transform="translate(253,240)"/>
<path d="M0 0 C0.66 0 1.32 0 2 0 C2.0272367 2.52090778 2.04695207 5.04151457 2.0625 7.5625 C2.07087891 8.26697266 2.07925781 8.97144531 2.08789062 9.69726562 C2.10882603 14.24024798 1.74800682 18.51784892 1 23 C0.01 23.33 -0.98 23.66 -2 24 C-1.76990234 22.80503906 -1.76990234 22.80503906 -1.53515625 21.5859375 C-0.89038893 17.26552585 -0.64957112 12.98462602 -0.4375 8.625 C-0.39431641 7.79355469 -0.35113281 6.96210938 -0.30664062 6.10546875 C-0.20138195 4.07046772 -0.10026928 2.03525297 0 0 Z " fill="#5085B8" transform="translate(299,248)"/>
<path d="M0 0 C0.66 0.99 1.32 1.98 2 3 C-4.15014631 8.5910421 -10.47710145 9.31435989 -18.4375 9.125 C-19.16904297 9.11597656 -19.90058594 9.10695313 -20.65429688 9.09765625 C-22.43634298 9.07436153 -24.21821759 9.0385019 -26 9 C-26 8.67 -26 8.34 -26 8 C-21.05 8 -16.1 8 -11 8 C-11 7.34 -11 6.68 -11 6 C-7.37 5.01 -3.74 4.02 0 3 C0 2.01 0 1.02 0 0 Z " fill="#3F78AF" transform="translate(260,263)"/>
<path d="M0 0 C6.27 2.97 12.54 5.94 19 9 C14.94798907 10.01300273 12.99849547 9.76566934 9 9 C8.01 9 7.02 9 6 9 C6 7.35 6 5.7 6 4 C4.02 3.34 2.04 2.68 0 2 C0 1.34 0 0.68 0 0 Z " fill="#437BAF" transform="translate(227,227)"/>
<path d="M0 0 C2.97 0.33 5.94 0.66 9 1 C9.33 1.99 9.66 2.98 10 4 C11.32 4 12.64 4 14 4 C14.33 5.65 14.66 7.3 15 9 C11.32305352 7.62859834 8.04681411 5.96304199 4.6875 3.9375 C3.80449219 3.41027344 2.92148438 2.88304687 2.01171875 2.33984375 C1.34785156 1.89769531 0.68398437 1.45554688 0 1 C0 0.67 0 0.34 0 0 Z " fill="#447EB8" transform="translate(242,195)"/>
<path d="M0 0 C4.35699967 0.66015146 8.11427053 1.90768413 12 4 C12.9375 6.6875 12.9375 6.6875 13 9 C7.97290493 7.42903279 3.97133531 4.38006951 0 1 C0 0.67 0 0.34 0 0 Z " fill="#3D7AB3" transform="translate(202,257)"/>
<path d="M0 0 C3.52238004 1.30066683 6.51494129 2.83740881 9.625 4.9375 C10.38039063 5.44152344 11.13578125 5.94554687 11.9140625 6.46484375 C13.80472861 7.85628903 15.39789629 9.29074923 17 11 C16.67 11.66 16.34 12.32 16 13 C15.34 12.67 14.68 12.34 14 12 C14 11.34 14 10.68 14 10 C13.05125 9.690625 12.1025 9.38125 11.125 9.0625 C8 8 8 8 6 7 C6 6.01 6 5.02 6 4 C4.02 3.34 2.04 2.68 0 2 C0 1.34 0 0.68 0 0 Z " fill="#477CAF" transform="translate(246,237)"/>
<path d="M0 0 C0.84046875 0.06123047 1.6809375 0.12246094 2.546875 0.18554688 C4.61570599 0.33835825 6.68305508 0.51100162 8.75 0.6875 C8.75 1.0175 8.75 1.3475 8.75 1.6875 C7.8321875 1.72488281 6.914375 1.76226562 5.96875 1.80078125 C-1.1069156 2.17983476 -6.74896919 2.91854243 -13.25 5.6875 C-14.57 5.6875 -15.89 5.6875 -17.25 5.6875 C-15.91666667 4.6875 -14.58333333 3.6875 -13.25 2.6875 C-12.4765625 1.883125 -12.4765625 1.883125 -11.6875 1.0625 C-7.87279958 -1.08938229 -4.26262221 -0.37630962 0 0 Z " fill="#CFE8F5" transform="translate(255.25,166.3125)"/>
<path d="M0 0 C8.28982104 -0.43630637 15.95969329 1.22032737 24 3 C24 3.99 24 4.98 24 6 C22.85402344 5.72285156 21.70804687 5.44570312 20.52734375 5.16015625 C18.9974356 4.79410461 17.46748543 4.42822853 15.9375 4.0625 C15.18533203 3.88009766 14.43316406 3.69769531 13.65820312 3.50976562 C9.11620899 2.42833845 4.63270877 1.58447189 0 1 C0 0.67 0 0.34 0 0 Z " fill="#477EAD" transform="translate(270,140)"/>
<path d="M0 0 C0.33 0 0.66 0 1 0 C2.0773541 7.49175465 1.8388516 14.48905184 1 22 C-2.76873037 15.77340199 -1.52153787 6.84692041 0 0 Z " fill="#CCE7F4" transform="translate(201,174)"/>
<path d="M0 0 C0.33 0.99 0.66 1.98 1 3 C1.66 3 2.32 3 3 3 C5.28571429 11.42857143 5.28571429 11.42857143 5 16 C4.34 16.33 3.68 16.66 3 17 C3 15.02 3 13.04 3 11 C2.34 11 1.68 11 1 11 C0.67 7.37 0.34 3.74 0 0 Z " fill="#3275B7" transform="translate(298,237)"/>
<path d="M0 0 C0.66 0.99 1.32 1.98 2 3 C1 5 1 5 -2.0625 6.0625 C-6.00872151 7.10227206 -9.94577677 7.57323966 -14 8 C-13.44828125 7.73445313 -12.8965625 7.46890625 -12.328125 7.1953125 C-9.72960475 5.86117291 -7.24877045 4.38741369 -4.75 2.875 C-3.85796875 2.33617187 -2.9659375 1.79734375 -2.046875 1.2421875 C-1.37140625 0.83226562 -0.6959375 0.42234375 0 0 Z " fill="#3E7CB2" transform="translate(284,288)"/>
<path d="M0 0 C0.66 0 1.32 0 2 0 C1.125 5.75 1.125 5.75 0 8 C-1.65 8 -3.3 8 -5 8 C-4.67 6.35 -4.34 4.7 -4 3 C-3.01 2.67 -2.02 2.34 -1 2 C-0.67 1.34 -0.34 0.68 0 0 Z " fill="#3074B7" transform="translate(201,168)"/>
<path d="M0 0 C1 2 1 2 0.375 5 C-1 8 -1 8 -3.5625 9.25 C-4.366875 9.4975 -5.17125 9.745 -6 10 C-6.33 10.66 -6.66 11.32 -7 12 C-7.66 11.67 -8.32 11.34 -9 11 C-8.06558465 9.72689688 -7.12732889 8.456612 -6.1875 7.1875 C-5.66542969 6.47980469 -5.14335937 5.77210938 -4.60546875 5.04296875 C-3.16871123 3.21468607 -1.68184237 1.60103312 0 0 Z " fill="#E3F5FD" transform="translate(215,152)"/>
<path d="M0 0 C3 4.38461538 3 4.38461538 3 7 C1.68 7 0.36 7 -1 7 C-1.33 6.34 -1.66 5.68 -2 5 C-4.02463255 4.34786708 -4.02463255 4.34786708 -6 4 C-6 3.34 -6 2.68 -6 2 C-2.25 0 -2.25 0 0 0 Z " fill="#3376B2" transform="translate(206,207)"/>
<path d="M0 0 C5.95507399 0.3916035 10.62819824 1.37124595 16 4 C15.34 4.66 14.68 5.32 14 6 C11.94140625 5.828125 11.94140625 5.828125 9.5625 5.25 C8.78003906 5.06953125 7.99757813 4.8890625 7.19140625 4.703125 C4.18407297 3.73820523 2.21773873 2.21773873 0 0 Z " fill="#3C78B1" transform="translate(269,169)"/>
<path d="M0 0 C0.66 0.66 1.32 1.32 2 2 C-0.97 4.97 -3.94 7.94 -7 11 C-7.66 10.34 -8.32 9.68 -9 9 C-6 6 -3 3 0 0 Z " fill="#E0F5FC" transform="translate(290,279)"/>
<path d="M0 0 C1 3 1 3 0 6 C-1.65 6 -3.3 6 -5 6 C-5.33 5.01 -5.66 4.02 -6 3 C-4.02 2.01 -2.04 1.02 0 0 Z " fill="#2177CB" transform="translate(258,261)"/>
<path d="M0 0 C5.26053037 -0.31563182 8.44573816 0.33409063 13 3 C9.57056481 4.18771723 7.62215325 3.80226223 4.25 2.5625 C3.45078125 2.27503906 2.6515625 1.98757813 1.828125 1.69140625 C1.22484375 1.46324219 0.6215625 1.23507812 0 1 C0 0.67 0 0.34 0 0 Z " fill="#487EAF" transform="translate(217,267)"/>
<path d="M0 0 C-0.75 2.9375 -0.75 2.9375 -2 6 C-4 7 -4 7 -6 7 C-6.66 6.34 -7.32 5.68 -8 5 C-2.25 0 -2.25 0 0 0 Z " fill="#E6F7FC" transform="translate(265,264)"/>
<path d="M0 0 C1.58294782 -0.05437607 3.16644256 -0.09296271 4.75 -0.125 C5.63171875 -0.14820313 6.5134375 -0.17140625 7.421875 -0.1953125 C10.1135858 0.00860498 11.69904974 0.63448279 14 2 C14 2.66 14 3.32 14 4 C9.38 3.01 4.76 2.02 0 1 C0 0.67 0 0.34 0 0 Z " fill="#D0EBF8" transform="translate(268,168)"/>
<path d="M0 0 C3.4375 1.3125 3.4375 1.3125 7 3 C7.33 3.99 7.66 4.98 8 6 C8.66 6.66 9.32 7.32 10 8 C8.68 8.33 7.36 8.66 6 9 C6 7.35 6 5.7 6 4 C4.02 3.34 2.04 2.68 0 2 C0 1.34 0 0.68 0 0 Z " fill="#3678B6" transform="translate(227,227)"/>
<path d="M0 0 C3.63 1.65 7.26 3.3 11 5 C11 5.33 11 5.66 11 6 C7.14521782 6.35858439 5.42240542 6.2754818 2.125 4.125 C1.42375 3.42375 0.7225 2.7225 0 2 C0 1.34 0 0.68 0 0 Z " fill="#DFF3FB" transform="translate(249,200)"/>
<path d="M0 0 C0.66 0 1.32 0 2 0 C3.42258812 3.82320557 4.24042276 6.91281305 4 11 C0.85041169 7.57653445 0.43820891 4.55737263 0 0 Z " fill="#E0F6FC" transform="translate(202,196)"/>
<path d="M0 0 C2.31 0.33 4.62 0.66 7 1 C7.33 2.32 7.66 3.64 8 5 C6.35 4.67 4.7 4.34 3 4 C3 3.01 3 2.02 3 1 C2.01 0.67 1.02 0.34 0 0 Z " fill="#E5F8FC" transform="translate(285,144)"/>
<path d="M0 0 C0.99 0.66 1.98 1.32 3 2 C2.67 3.32 2.34 4.64 2 6 C0.68 5.34 -0.64 4.68 -2 4 C-2 3.01 -2 2.02 -2 1 C-1.34 0.67 -0.68 0.34 0 0 Z " fill="#2872D0" transform="translate(196,289)"/>
<path d="M0 0 C6.625 0.75 6.625 0.75 10 3 C10 3.66 10 4.32 10 5 C6.08788267 3.84414715 3.1254959 2.64465038 0 0 Z " fill="#DCF3FA" transform="translate(236,231)"/>
<path d="M0 0 C0 0.66 0 1.32 0 2 C-2.90092502 3.93395001 -3.89674737 4.30131941 -7.1875 4.625 C-8.445625 4.74875 -9.70375 4.8725 -11 5 C-7.72709962 2.33319229 -4.35126896 0 0 0 Z " fill="#D1ECF6" transform="translate(232,144)"/>
<path d="M0 0 C2.64 1.98 5.28 3.96 8 6 C4 7 4 7 2 6 C1.27306096 4.02111039 0.60183749 2.02045442 0 0 Z " fill="#3B77B4" transform="translate(210,215)"/>
<path d="M0 0 C2.9375 0.8125 2.9375 0.8125 6 2 C6.33 2.99 6.66 3.98 7 5 C4.625 4.75 4.625 4.75 2 4 C0.6875 1.9375 0.6875 1.9375 0 0 Z " fill="#DEF4FA" transform="translate(267,210)"/>
<path d="M0 0 C0 3 0 3 -1 6 C-2.65 6.33 -4.3 6.66 -6 7 C-4.60667426 3.63279613 -3.0210714 2.0140476 0 0 Z " fill="#4A80B6" transform="translate(242,171)"/>
<path d="M0 0 C0.33 0.66 0.66 1.32 1 2 C3.02463255 2.65213292 3.02463255 2.65213292 5 3 C4.67 3.99 4.34 4.98 4 6 C0.535 4.02 0.535 4.02 -3 2 C-2.01 1.34 -1.02 0.68 0 0 Z " fill="#407CB3" transform="translate(272,209)"/>
<path d="M0 0 C0.33 0 0.66 0 1 0 C0.25 6.625 0.25 6.625 -2 10 C-3.39195915 5.82412255 -1.82323219 3.86525224 0 0 Z " fill="#D4EBF8" transform="translate(205,164)"/>
</svg>
