<?xml version="1.0" encoding="UTF-8"?>
<svg version="1.1" xmlns="http://www.w3.org/2000/svg" width="1488" height="1681">
<path d="M0 0 C0 99.66 0 199.32 0 302 C-8.25 306.62 -16.5 311.24 -25 316 C-31.23774775 319.64975507 -31.23774775 319.64975507 -37.4609375 323.32421875 C-43.13328613 326.68145465 -48.85006883 329.96160625 -54.5625 333.25 C-63.0565633 338.14145341 -71.53763184 343.05391349 -80 348 C-95.2258816 356.89582267 -110.48818622 365.72948654 -125.8137207 374.45263672 C-135.71982263 380.09142028 -145.56230379 385.83406395 -155.38867188 391.61019897 C-164.00291689 396.6727731 -172.64564965 401.68057832 -181.33129883 406.61987305 C-187.80884409 410.30761241 -194.2529036 414.05037466 -200.6875 417.8125 C-209.17407546 422.77342784 -217.67278015 427.71251668 -226.1875 432.625 C-227.2693457 433.24930908 -228.35119141 433.87361816 -229.46582031 434.5168457 C-235.54289368 438.01964146 -241.63200277 441.50020216 -247.73242188 444.9621582 C-251.83087651 447.29213706 -255.91866109 449.64018686 -260 452 C-260.63615234 452.36593262 -261.27230469 452.73186523 -261.92773438 453.10888672 C-263.52400236 454.03527628 -265.10653273 454.98523344 -266.6875 455.9375 C-267.89986328 456.66259766 -267.89986328 456.66259766 -269.13671875 457.40234375 C-272.43186205 460.22773916 -272.93731131 463.29788671 -273.3125 467.5 C-272.96142247 471.43206838 -272.53312806 472.99191043 -270 476 C-263.77694358 480.10222705 -257.28342546 483.73755073 -250.80276489 487.41442871 C-247.68771891 489.18222113 -244.57606433 490.95595451 -241.46484375 492.73046875 C-240.51979225 493.26947311 -240.51979225 493.26947311 -239.5556488 493.81936646 C-233.53526758 497.25751738 -227.54553684 500.74730233 -221.5625 504.25 C-213.25930648 509.10967142 -204.92818993 513.91620606 -196.56933594 518.67944336 C-190.20382607 522.30783223 -183.85660436 525.96653206 -177.51879883 529.64306641 C-171.77644341 532.9736681 -166.02646722 536.29084777 -160.27416992 539.60424805 C-151.99789005 544.37218893 -143.72304855 549.14069257 -135.5 554 C-124.05522661 560.76159539 -112.51951753 567.36689953 -101 574 C-87.32933053 581.8732446 -73.67027077 589.76471228 -60.04956055 597.72412109 C-49.3743971 603.95795986 -38.66169096 610.12637259 -27.95068359 616.29833984 C-23.79736238 618.69356149 -19.64828256 621.09606575 -15.5 623.5 C-7.05189189 628.39452431 1.40153712 633.27983189 9.86376953 638.14990234 C15.00765214 641.11153172 20.14688052 644.08001999 25.26457214 647.08666992 C27.00827417 648.11057731 28.75374155 649.13140864 30.49975586 650.15136719 C32.67727689 651.42464603 34.8515298 652.70353841 37.02172852 653.98925781 C52.57908659 663.18820547 52.57908659 663.18820547 70.08203125 663.5234375 C73.80178102 662.30553127 76.87927387 660.47918427 80.0859375 658.2578125 C85.09202103 654.87961163 90.2851114 651.92995051 95.5625 649 C103.64938433 644.47058759 111.69162384 639.87570317 119.6875 635.1875 C128.38622647 630.09193122 137.11731428 625.05589483 145.875 620.0625 C163.25834631 610.14857664 180.60068589 600.16542584 197.875 590.0625 C207.14505515 584.64088505 216.4583165 579.29795143 225.78845215 573.98077393 C233.92570061 569.34224733 242.03968596 564.66616538 250.125 559.9375 C266.74647694 550.21732996 283.40634887 540.56726481 300.1875 531.125 C306.97823253 527.30374709 313.71504424 523.41881363 320.37524414 519.37475586 C328.24834416 514.60988449 336.26978505 510.10037897 344.26953125 505.55273438 C355.63599674 499.08897181 366.98812449 492.59974299 378.3125 486.0625 C379.07062988 485.62607178 379.82875977 485.18964355 380.60986328 484.73999023 C384.23570946 482.64262368 387.84096558 480.51429879 391.4140625 478.328125 C392.05424316 477.93657227 392.69442383 477.54501953 393.35400391 477.14160156 C395.8928062 475.38078288 396.98219575 473.91770552 398 471 C398.03398548 466.75181447 397.42774638 462.57021526 395 459 C394.34 458.67 393.68 458.34 393 458 C393 457.34 393 456.68 393 456 C392.04867188 455.6596875 392.04867188 455.6596875 391.078125 455.3125 C386.80735886 453.49146266 382.80774578 451.25009918 378.75 449 C377.85812988 448.50725586 376.96625977 448.01451172 376.04736328 447.50683594 C369.92123225 444.106217 363.8569718 440.61358197 357.83203125 437.03735352 C351.50295822 433.28199745 345.12942744 429.60655139 338.75 425.9375 C329.3070653 420.50237881 319.89391716 415.01931985 310.5 409.5 C298.10613337 402.21950675 285.66962751 395.01543622 273.21044922 387.84716797 C258.46263448 379.36184734 243.72855439 370.85438764 229.03857422 362.26928711 C220.61799495 357.35164118 212.17204102 352.47872892 203.72192383 347.61206055 C196.36231136 343.37063878 189.02020729 339.10024438 181.6875 334.8125 C173.31098111 329.91472028 164.90350576 325.07521882 156.47094727 320.2746582 C150.1454026 316.66849519 143.85647122 313.00385316 137.59008789 309.29589844 C136.95449951 308.91981445 136.31891113 308.54373047 135.6640625 308.15625 C135.12217285 307.83462891 134.5802832 307.51300781 134.02197266 307.18164062 C131.02774823 305.43181616 128.01109746 303.72062712 125 302 C125 202.34 125 102.68 125 0 C128.66488568 0.91622142 131.01292331 1.97710207 134.26171875 3.80859375 C135.28918213 4.38544922 136.31664551 4.96230469 137.37524414 5.55664062 C138.46828857 6.17732422 139.56133301 6.79800781 140.6875 7.4375 C141.81728271 8.07494141 142.94706543 8.71238281 144.11108398 9.36914062 C152.36538222 14.03918871 160.55655925 18.80697148 168.71191406 23.64697266 C189.52790296 35.95621407 210.49612893 48.01485463 231.5 60 C264.69465471 78.94489613 264.69465471 78.94489613 275.5625 85.5625 C281.96874832 89.46046213 288.51018225 93.10417511 295.0625 96.75 C303.94900925 101.69512627 312.74663429 106.76121018 321.4831543 111.96606445 C328.89930528 116.37439587 336.37765962 120.66931492 343.875 124.9375 C357.61450972 132.76198056 371.27449594 140.71832928 384.91796875 148.70898438 C402.17440419 158.81171727 419.51857168 168.75420779 436.89501953 178.6484375 C447.98397551 184.96323231 459.03318401 191.34062167 470.04858398 197.78295898 C477.48318659 202.12685937 484.94778579 206.41538003 492.42895508 210.6784668 C498.80158493 214.31092011 505.15550472 217.97440227 511.50097656 221.65405273 C518.18287268 225.52853883 524.87167371 229.39095719 531.5625 233.25 C532.66021729 233.88325195 533.75793457 234.51650391 534.88891602 235.16894531 C540.45759178 238.38112888 546.02706731 241.59191665 551.59765625 244.80078125 C562.08048983 250.84107278 572.55381782 256.8965064 583 263 C597.98864754 271.75590318 613.01152054 280.45303952 628.09375 289.046875 C628.68433197 289.38341599 629.27491394 289.71995697 629.88339233 290.06669617 C630.47407501 290.40328751 631.06475769 290.73987885 631.67333984 291.08666992 C642.09363994 297.02480137 652.4752807 303.01938319 662.78759766 309.14379883 C679.37710974 318.98541886 696.14671868 328.51950747 712.90161133 338.07580566 C721.98617405 343.25884968 731.03554946 348.49960975 740.06298828 353.78149414 C747.35929012 358.04906249 754.67530668 362.28136817 762 366.5 C770.75847354 371.54794827 779.51141643 376.60518269 788.25 381.6875 C789.24386719 382.26371094 790.23773437 382.83992188 791.26171875 383.43359375 C792.19113281 383.975 793.12054687 384.51640625 794.078125 385.07421875 C795.29097168 385.77937622 795.29097168 385.77937622 796.52832031 386.4987793 C797.34397461 386.99418213 798.15962891 387.48958496 799 388 C800.02575122 388.42827835 801.05150245 388.8565567 802.10833704 389.29781318 C805.46629065 392.43573697 805.46810508 393.11818452 805.74519098 397.52382493 C805.77380569 399.92778405 805.76866547 402.33227239 805.73828697 404.73620987 C805.7427238 406.07793828 805.74979426 407.41966012 805.75926596 408.76136243 C805.77773624 412.4683944 805.7585861 416.17444415 805.73359716 419.88140317 C805.71303976 423.90648873 805.72720747 427.93147191 805.7370621 431.95657706 C805.74952364 439.01754565 805.73960992 446.07821142 805.71523285 453.1391449 C805.67908547 463.63849843 805.67721212 474.13766023 805.68248478 484.63706464 C805.69037646 502.29694222 805.67028849 519.95668531 805.63438034 537.61652374 C805.598906 555.1077567 805.5757903 572.59893367 805.56926346 590.09020233 C805.56885102 591.17682325 805.56843858 592.26344417 805.56801365 593.38299299 C805.56598371 598.90115232 805.56417539 604.41931169 805.56245239 609.93747112 C805.54984223 649.04591734 805.50939667 688.15429035 805.45263672 727.26269531 C805.3975509 765.26138926 805.35503906 803.2600632 805.32958984 841.25878906 C805.32880069 842.42960279 805.32801153 843.60041652 805.32719846 844.80670946 C805.3192875 856.56425637 805.31163259 868.32180344 805.3041653 880.07935064 C805.28894709 904.03188506 805.27201957 927.98441817 805.25405884 951.93695068 C805.2532351 953.03830484 805.25241136 954.139659 805.25156266 955.27438752 C805.1963373 1028.84962213 805.10126361 1102.42481613 805 1176 C804.01 1176 803.02 1176 802 1176 C801.34 1177.32 800.68 1178.64 800 1180 C785.18408166 1171.68485847 770.4627468 1163.22138802 755.80126953 1154.63720703 C751.60350811 1152.1838178 747.39646933 1149.74659747 743.1875 1147.3125 C742.41913818 1146.86801514 741.65077637 1146.42353027 740.85913086 1145.96557617 C738.57295147 1144.64337538 736.2865239 1143.32160492 734 1142 C716.83978841 1132.08144195 699.6938441 1122.13768324 682.625 1112.0625 C675.65442403 1107.94856364 668.64157259 1103.90987926 661.625 1099.875 C652.47685773 1094.61396576 643.37900698 1089.27541116 634.3125 1083.875 C625.18148328 1078.43816159 615.98961904 1073.13432334 606.71777344 1067.94189453 C598.50567339 1063.3259708 590.40529043 1058.53056789 582.31390381 1053.70776367 C575.62772026 1049.72329976 568.92724286 1045.78307008 562.125 1042 C560.90736973 1041.31412572 559.68991421 1040.62794107 558.47265625 1039.94140625 C556.68909808 1038.94429893 554.90425333 1037.94896301 553.10107422 1036.98779297 C551.24042751 1035.99516377 549.4013834 1034.96974885 547.5625 1033.9375 C546.51191406 1033.36902344 545.46132812 1032.80054688 544.37890625 1032.21484375 C541.11121396 1029.17250955 541.25264774 1026.24957398 541 1022 C540.87563776 1017.88951779 540.87779931 1013.78349306 540.89320374 1009.67140198 C540.89376044 1008.44176741 540.89431715 1007.21213284 540.89489073 1005.94523662 C540.89739417 1002.54878744 540.90438091 999.15240145 540.91325247 995.75596654 C540.92170985 992.08651148 540.92428579 988.41705185 540.92750549 984.74758911 C540.93379413 978.3934771 540.94352835 972.03937803 540.95540047 965.68527412 C540.97240259 956.48858519 540.98193756 947.29189945 540.9892792 938.09519827 C541.00121743 923.16006 541.01616332 908.22492679 541.03442383 893.28979492 C541.03551395 892.39650468 541.03660407 891.50321444 541.03772723 890.5828548 C541.05333984 877.90409837 541.07193587 865.22534804 541.0917251 852.54659753 C541.09311842 851.65361048 541.09451173 850.76062343 541.09594727 849.84057617 C541.09803756 848.50273329 541.09803756 848.50273329 541.10017008 847.13786329 C541.12321658 832.258697 541.13852444 817.37953466 541.14750665 802.50035328 C541.15335412 793.32844111 541.16571122 784.15658331 541.18647944 774.98469257 C541.20020359 768.69922689 541.20668131 762.41378017 541.20748956 756.12829966 C541.20819242 752.50389323 541.21216135 748.87956789 541.2249527 745.25518227 C541.23876085 741.3219594 541.23698506 737.38882937 541.23377991 733.45558167 C541.24028771 732.31607876 541.24679551 731.17657585 541.25350052 730.00254256 C541.25977285 717.42768932 541.25977285 717.42768932 535 707 C531.6958846 705.3479423 528.56118583 705.41660755 525 706 C521.22885334 707.57137323 517.80399439 709.638919 514.3125 711.75 C512.79910034 712.63582764 512.79910034 712.63582764 511.25512695 713.53955078 C509.16924709 714.76051385 507.08713054 715.98792837 505.00878906 717.22167969 C501.4315844 719.33595742 497.82470971 721.39379171 494.21044922 723.44384766 C477.00253378 733.2051018 459.88690827 743.13250345 442.8125 753.125 C435.03840795 757.67427406 427.22727947 762.14962127 419.375 766.5625 C410.89054357 771.33098845 402.49003342 776.22477424 394.12402344 781.19775391 C387.99122683 784.83821177 381.8243778 788.41170989 375.625 791.9375 C368.16011212 796.18313309 360.72593347 800.47762856 353.3125 804.8125 C335.3034126 815.3388566 317.22330252 825.73983749 299.10287476 836.07305908 C289.9013796 841.3219258 280.73911729 846.63523755 271.59643555 851.98583984 C264.28691546 856.26007667 256.94556464 860.47563116 249.58911133 864.66845703 C241.47087725 869.2966164 233.37736035 873.9660587 225.30078125 878.66650391 C222.9659847 880.01971472 220.62419946 881.36018234 218.28125 882.69921875 C216.77070825 883.57009557 215.26028662 884.4411808 213.75 885.3125 C213.07098633 885.69680176 212.39197266 886.08110352 211.69238281 886.47705078 C205.09963425 890.30281784 199.14382965 894.25480885 196.125 901.5 C195.54105469 902.84578125 195.54105469 902.84578125 194.9453125 904.21875 C193.2340173 909.25363506 192.87474911 914.12205213 192.87136555 919.41348743 C192.8681411 920.69132282 192.86491665 921.96915821 192.8615945 923.28571588 C192.86306551 924.69640285 192.86463322 926.10708972 192.86628723 927.51777649 C192.86441845 929.0220933 192.86211748 930.52640962 192.85942191 932.03072518 C192.85330579 936.16137356 192.85343728 940.29200169 192.85461628 944.42265356 C192.85482034 948.87879776 192.84930109 953.33493548 192.84455872 957.79107666 C192.83625266 966.52029314 192.8335039 975.24950287 192.83294634 983.97872297 C192.83247116 991.07423271 192.83041634 998.16974022 192.82724571 1005.26524925 C192.81843931 1025.38240839 192.81382632 1045.4995622 192.81457619 1065.61672328 C192.81461614 1066.70121973 192.8146561 1067.78571619 192.81469727 1068.90307617 C192.81473815 1069.98889676 192.81477903 1071.07471735 192.81482115 1072.19344159 C192.81522763 1089.79210753 192.80565751 1107.39075206 192.7915589 1124.98941181 C192.7771967 1143.05967504 192.77028863 1161.12992784 192.77115268 1179.20019692 C192.7714847 1189.34524354 192.76873538 1199.49026774 192.75797462 1209.63530922 C192.7488717 1218.27272963 192.74669268 1226.91011745 192.75348405 1235.54754058 C192.75675027 1239.95367484 192.75680221 1244.35974655 192.7481308 1248.76587486 C192.74026947 1252.80191709 192.74169348 1256.83784713 192.75041493 1260.87388661 C192.75195072 1262.33146255 192.75013076 1263.78904685 192.74455485 1265.24661294 C192.35058601 1278.29004094 192.35058601 1278.29004094 197.1875 1290 C200.78321196 1292.55695073 202.56399136 1293.14544291 207 1293 C214.50240014 1289.96440565 221.4864907 1285.48117717 228.4375 1281.375 C230.57145312 1280.12212078 232.70556947 1278.86951955 234.83984375 1277.6171875 C235.88640137 1277.00198242 236.93295898 1276.38677734 238.01123047 1275.75292969 C242.16386351 1273.31738768 246.33062306 1270.90672818 250.5 1268.5 C256.69629762 1264.92039113 262.87944398 1261.31894339 269.05639648 1257.70605469 C277.44874201 1252.79825029 285.85358541 1247.92403689 294.34326172 1243.18652344 C299.75918465 1240.15630262 305.10816128 1237.01877223 310.45068359 1233.86132812 C316.41818753 1230.335628 322.41246553 1226.8580332 328.41455078 1223.39160156 C333.97684821 1220.17693239 339.52640336 1216.94103384 345.07177734 1213.69726562 C353.46018732 1208.7912092 361.86122967 1203.91889315 370.34765625 1199.18432617 C374.99936012 1196.58218903 379.60013175 1193.90126694 384.1875 1191.1875 C390.40738848 1187.50854163 396.65883896 1183.89023486 402.9375 1180.3125 C418.5571597 1171.40990106 434.13598155 1162.43611791 449.65942383 1153.36669922 C451.69293561 1152.17958712 453.72789273 1150.99494681 455.7644043 1149.81298828 C460.00733511 1147.34875179 464.23430065 1144.87290509 468.3984375 1142.27734375 C469.04071289 1141.88538818 469.68298828 1141.49343262 470.34472656 1141.08959961 C471.97030939 1140.09467693 473.58351972 1139.07961096 475.1953125 1138.0625 C478 1137 478 1137 480.76953125 1137.46484375 C485.20308479 1139.57171986 489.36668935 1142.0195498 493.5625 1144.5625 C495.5308611 1145.74023355 497.49963273 1146.91728117 499.46875 1148.09375 C500.520625 1148.72410156 501.5725 1149.35445312 502.65625 1150.00390625 C508.60602628 1153.55570027 514.58407951 1157.05920491 520.5625 1160.5625 C521.48952225 1161.10612686 521.48952225 1161.10612686 522.43527222 1161.66073608 C531.97602204 1167.25427696 541.55644619 1172.77503519 551.16796875 1178.24609375 C562.69510562 1184.80826371 574.15252183 1191.48641111 585.5625 1198.25 C594.72402887 1203.68025558 603.93594657 1209.01901961 613.16601562 1214.33178711 C627.27994401 1222.45776621 641.34892732 1230.66080692 655.375 1238.9375 C663.5210437 1243.74298628 671.71798554 1248.45941849 679.91333008 1253.18017578 C695.17597475 1261.97597318 710.39336061 1270.85017671 725.56274414 1279.8059082 C729.68868659 1282.23965125 733.83626414 1284.63143983 738 1287 C738 1287.66 738 1288.32 738 1289 C736.20947266 1290.27416992 736.20947266 1290.27416992 733.6640625 1291.73046875 C732.2411792 1292.55212524 732.2411792 1292.55212524 730.78955078 1293.39038086 C729.22309814 1294.27995483 729.22309814 1294.27995483 727.625 1295.1875 C726.54589355 1295.80826416 725.46678711 1296.42902832 724.35498047 1297.06860352 C722.06255916 1298.38670445 719.76885553 1299.70220028 717.47265625 1301.01367188 C713.08358163 1303.52162706 708.70850459 1306.05370029 704.33227539 1308.58398438 C701.08639317 1310.45981126 697.83843687 1312.33199728 694.58984375 1314.203125 C690.16383573 1316.75256876 685.73937275 1319.30465818 681.31640625 1321.859375 C671.34856754 1327.61613119 661.37613619 1333.36375735 651.375 1339.0625 C644.03517104 1343.24558642 636.72896334 1347.48321003 629.4375 1351.75 C620.65609346 1356.88854287 611.83993965 1361.96312315 603 1367 C594.30597753 1371.95377615 585.63497328 1376.94369212 577 1382 C567.77199471 1387.4035646 558.5000533 1392.72652361 549.20898438 1398.02050781 C541.11255867 1402.63502804 533.04193491 1407.29095255 525 1412 C516.36502443 1417.05630923 507.69393681 1422.04607122 499 1427 C490.26597512 1431.97727081 481.55267397 1436.98734066 472.875 1442.0625 C455.01299934 1452.50913578 437.07664848 1462.82475953 419.1008606 1473.07406616 C409.9464003 1478.29523463 400.83472275 1483.58637979 391.74145508 1488.91333008 C383.91863962 1493.48671864 376.03760258 1497.95114112 368.14013672 1502.39404297 C361.99325077 1505.85753821 355.89498017 1509.39131924 349.82666016 1512.99023438 C343.07231848 1516.98366571 336.25492073 1520.8656995 329.4375 1524.75 C319.57221996 1530.37203356 309.73975253 1536.04583482 299.93920898 1541.78027344 C291.55066733 1546.68650358 283.13458309 1551.54394444 274.71264648 1556.39257812 C268.43047348 1560.01213 262.16295432 1563.65523386 255.90795898 1567.3215332 C245.58340644 1573.37268667 235.18728901 1579.27662035 224.73120117 1585.09741211 C218.59171887 1588.52341277 212.51806864 1592.02733203 206.51269531 1595.68237305 C200.57980908 1599.28377664 194.55064027 1602.71063495 188.51928711 1606.14379883 C181.43644444 1610.17611336 174.37055246 1614.23695367 167.3125 1618.3125 C166.22155029 1618.94236816 165.13060059 1619.57223633 164.0065918 1620.22119141 C161.78118194 1621.5062298 159.55584044 1622.79138657 157.33056641 1624.07666016 C151.88809106 1627.21958794 146.44397523 1630.35967118 141 1633.5 C138.8333252 1634.7499859 136.66665854 1635.99998592 134.5 1637.25 C121.5 1644.75 121.5 1644.75 118.24658203 1646.62695312 C116.09128689 1647.8704051 113.93601327 1649.11389436 111.78076172 1650.35742188 C106.77662326 1653.24462875 101.7722948 1656.1315043 96.76715088 1659.01696777 C95.01658759 1660.02619104 93.26609589 1661.03553836 91.515625 1662.04492188 C89.33607835 1663.3016766 87.15640168 1664.55820586 84.9765625 1665.81445312 C82.98338571 1666.96386886 80.99148402 1668.11549906 79.00097656 1669.26953125 C76.8898097 1670.4869044 74.77125229 1671.69150614 72.64746094 1672.88671875 C71.5649707 1673.50160156 70.48248047 1674.11648438 69.3671875 1674.75 C68.3860498 1675.30171875 67.40491211 1675.8534375 66.39404297 1676.421875 C63.76336522 1677.9330959 63.76336522 1677.9330959 62 1681 C56.04338709 1680.57180898 52.0486586 1677.90799976 47.125 1674.8125 C45.32903495 1673.70945455 43.53211937 1672.60795562 41.734375 1671.5078125 C40.32575195 1670.6420459 40.32575195 1670.6420459 38.88867188 1669.75878906 C34.08886583 1666.83639194 29.23320664 1664.01139754 24.375 1661.1875 C23.3761377 1660.60589111 22.37727539 1660.02428223 21.34814453 1659.42504883 C12.81608523 1654.46257985 4.26512664 1649.53294129 -4.28759766 1644.60620117 C-12.52399473 1639.85925129 -20.73831534 1635.07545796 -28.94555664 1630.27832031 C-36.42743783 1625.90860102 -43.92918812 1621.57412164 -51.4375 1617.25 C-60.67038627 1611.93134212 -69.87806784 1606.57355159 -79.05078125 1601.15185547 C-92.30019018 1593.32235756 -105.59087407 1585.5639132 -118.88720703 1577.81445312 C-122.93031266 1575.45771893 -126.97265369 1573.09967551 -131.01489258 1570.74145508 C-133.01075261 1569.57710817 -135.00668402 1568.41288361 -137.00268555 1567.2487793 C-141.97947623 1564.3461568 -146.95543809 1561.44213188 -151.9296875 1558.53515625 C-163.52540772 1551.76089971 -175.14340573 1545.02694768 -186.78076172 1538.32446289 C-193.35694692 1534.53393352 -199.91311596 1530.71254963 -206.4465332 1526.84887695 C-212.97721123 1522.99505665 -219.55220619 1519.21890346 -226.125 1515.4375 C-233.51785087 1511.18304439 -240.88702787 1506.90382765 -248.18041992 1502.48095703 C-255.33169561 1498.16421582 -262.588052 1494.02774838 -269.82763672 1489.86157227 C-277.27328474 1485.57592762 -284.70629129 1481.26961051 -292.125 1476.9375 C-293.10799072 1476.36354492 -294.09098145 1475.78958984 -295.10375977 1475.19824219 C-299.05596406 1472.88978895 -303.00746153 1470.58012727 -306.95898438 1468.27050781 C-321.51777286 1459.7626858 -336.10615594 1451.30787364 -350.71777344 1442.89111328 C-357.22871257 1439.13971976 -363.73663194 1435.38309006 -370.24511719 1431.62744141 C-375.68585336 1428.48817754 -381.12731477 1425.35018503 -386.5703125 1422.21484375 C-397.02206279 1416.19252625 -407.46293115 1410.15319743 -417.875 1404.0625 C-426.51281994 1399.01161986 -435.18319196 1394.01974872 -443.875 1389.0625 C-460.79032017 1379.41481373 -477.69393437 1369.74610576 -494.46069336 1359.84179688 C-507.84317767 1351.95018349 -521.32542744 1344.2245779 -534.82739258 1336.53955078 C-544.56764666 1330.99528983 -554.24453169 1325.34816502 -563.90490723 1319.66638184 C-574.37808625 1313.50906948 -584.90328131 1307.44777256 -595.46313477 1301.44042969 C-597.59976221 1300.22480374 -599.73467571 1299.00615923 -601.86767578 1297.78417969 C-604.01392156 1296.56167274 -606.16907979 1295.35471867 -608.33154297 1294.16113281 C-609.39646973 1293.56397461 -610.46139648 1292.96681641 -611.55859375 1292.3515625 C-612.50919678 1291.82643066 -613.4597998 1291.30129883 -614.43920898 1290.76025391 C-617.24967766 1288.82837487 -619.00763291 1286.7492849 -621 1284 C-610.82299167 1277.80310879 -600.5284851 1271.82009143 -590.20068359 1265.87841797 C-582.53451483 1261.4667652 -574.8859529 1257.02623259 -567.25 1252.5625 C-560.10973689 1248.3895893 -552.95416832 1244.2492914 -545.765625 1240.16015625 C-539.69798687 1236.69269341 -533.67510296 1233.14739052 -527.6418457 1229.62060547 C-520.17409529 1225.25880872 -512.68484048 1220.93568722 -505.1875 1216.625 C-496.25122647 1211.48349991 -487.36099581 1206.27011525 -478.5 1201 C-460.15599503 1190.09382307 -441.63546837 1179.49869991 -423.09902954 1168.92437744 C-414.95993112 1164.28000063 -406.84311678 1159.5990907 -398.75 1154.875 C-397.78835938 1154.31603027 -396.82671875 1153.75706055 -395.8359375 1153.18115234 C-390.65415968 1150.16280159 -385.50482387 1147.09928765 -380.3828125 1143.98046875 C-379.29387695 1143.3251416 -378.20494141 1142.66981445 -377.08300781 1141.99462891 C-374.99323706 1140.73599529 -372.91135701 1139.46413628 -370.83886719 1138.17724609 C-369.89946289 1137.61473145 -368.96005859 1137.0522168 -367.9921875 1136.47265625 C-367.17089355 1135.97000244 -366.34959961 1135.46734863 -365.50341797 1134.94946289 C-362.19833893 1133.69595671 -360.38658824 1134.0520917 -357 1135 C-354.17358398 1136.3918457 -354.17358398 1136.3918457 -351.24609375 1138.17578125 C-350.15530518 1138.83271973 -349.0645166 1139.4896582 -347.94067383 1140.16650391 C-347.08428818 1140.69114227 -347.08428818 1140.69114227 -346.21060181 1141.22637939 C-343.79693102 1142.70488309 -341.37089843 1144.16251815 -338.94529724 1145.62133789 C-337.71515247 1146.36135298 -336.4856299 1147.10240334 -335.25672913 1147.84448242 C-329.98918406 1151.02206514 -324.66575439 1154.09404058 -319.3125 1157.125 C-311.84396889 1161.36459793 -304.41243067 1165.66304626 -297 1170 C-289.56249076 1174.34965976 -282.11059569 1178.67109831 -274.625 1182.9375 C-257.04688475 1192.96013894 -239.52246526 1203.06475954 -222.13308716 1213.41143799 C-215.13240968 1217.57520964 -208.11110451 1221.6821197 -200.99047852 1225.63696289 C-195.04902797 1228.9455445 -189.18149947 1232.37738199 -183.3125 1235.8125 C-175.83606147 1240.18834 -168.34373458 1244.53166524 -160.8125 1248.8125 C-151.03297799 1254.37591091 -141.32875168 1260.0651302 -131.62768555 1265.76367188 C-122.39837973 1271.18470498 -113.16364327 1276.59709059 -103.87426758 1281.91479492 C-102.60789022 1282.64803022 -101.34998119 1283.39605952 -100.1003418 1284.1574707 C-95.12024911 1287.15057348 -91.68827958 1288.10253103 -86 1287 C-81.24228405 1285.20447937 -78.70450154 1283.42188176 -76.41547871 1278.80199146 C-74.15596701 1272.49673535 -74.5893526 1265.90337866 -74.6257782 1259.2931366 C-74.62303544 1257.79264158 -74.6189815 1256.29214848 -74.61373454 1254.79166013 C-74.60317014 1250.68072294 -74.61126215 1246.5700039 -74.62248504 1242.45907629 C-74.63133967 1238.02064608 -74.62287979 1233.58224403 -74.61662292 1229.14381409 C-74.60713955 1220.45294082 -74.61373116 1211.76215064 -74.62588587 1203.07128354 C-74.63951804 1192.94602421 -74.63786686 1182.82078459 -74.63575254 1172.69551841 C-74.63256319 1154.62471333 -74.64422624 1136.55394768 -74.66381836 1118.4831543 C-74.68281377 1100.95807697 -74.68990803 1083.43304587 -74.68432617 1065.90795898 C-74.6782638 1046.81783414 -74.6784545 1027.72772961 -74.689812 1008.63760644 C-74.69101927 1006.60053496 -74.69222525 1004.56346347 -74.69342995 1002.52639198 C-74.69403349 1001.52416358 -74.69463702 1000.52193518 -74.69525885 999.48933622 C-74.69913346 992.43616329 -74.69874611 985.38299793 -74.6968441 978.32982445 C-74.69471852 969.72873423 -74.69997348 961.12768442 -74.71445765 952.52660557 C-74.72168516 948.14046716 -74.72579277 943.75438752 -74.72121429 939.36824417 C-74.71712018 935.34820595 -74.72235341 931.32828874 -74.73484037 927.30826882 C-74.73775388 925.85879572 -74.7373566 924.4093111 -74.73319729 922.95984104 C-74.33949228 906.9569498 -74.33949228 906.9569498 -81 893 C-86.72558636 887.61302358 -92.97765084 883.90181627 -99.8125 880.0625 C-101.55376651 879.0712702 -103.29502662 878.08002894 -105.03588867 877.08808899 C-106.83431727 876.06456522 -108.6345307 875.04423956 -110.43505859 874.02441406 C-116.01616631 870.85973367 -121.56949774 867.6468422 -127.125 864.4375 C-128.20257568 863.81617188 -129.28015137 863.19484375 -130.39038086 862.5546875 C-137.5663126 858.41503785 -144.72428453 854.2455202 -151.875 850.0625 C-160.55262452 844.98724753 -169.26613537 839.97755447 -178 835 C-191.69613279 827.1935927 -205.31474483 819.25809791 -218.91796875 811.29101562 C-231.8730951 803.70647236 -244.86853139 796.19805763 -257.90893555 788.76147461 C-266.89448487 783.63680843 -275.85568056 778.47174249 -284.80078125 773.27685547 C-288.55300551 771.09833272 -292.30775546 768.92417513 -296.0625 766.75 C-296.82602783 766.30760986 -297.58955566 765.86521973 -298.3762207 765.40942383 C-303.06300151 762.69526952 -307.7544294 759.98934252 -312.44921875 757.2890625 C-332.52153475 745.7395558 -332.52153475 745.7395558 -342.0246582 739.98852539 C-346.92974618 737.02478723 -351.89996846 734.18585975 -356.8828125 731.35546875 C-362.21438326 728.3160131 -367.51144391 725.21724833 -372.8125 722.125 C-373.84689209 721.52381348 -374.88128418 720.92262695 -375.94702148 720.30322266 C-380.67467023 717.55060282 -385.3857203 714.78054968 -390.04296875 711.91015625 C-390.80311279 711.44657715 -391.56325684 710.98299805 -392.34643555 710.50537109 C-393.72886938 709.65939243 -395.10472692 708.80251723 -396.47192383 707.93212891 C-401.03027444 705.1579977 -404.63902588 704.19303919 -410 704 C-415.2506877 705.32125148 -419.14027777 708.42444444 -422 713 C-423.01594387 716.13942456 -423.12134321 719.01334575 -423.11352539 722.30119896 C-423.11344954 723.38183219 -423.1133737 724.46246543 -423.11329556 725.57584512 C-423.10813458 726.76240406 -423.10297361 727.948963 -423.09765625 729.17147827 C-423.09548472 731.11062869 -423.09331349 733.04977911 -423.09115213 734.98892955 C-423.08782084 737.09432043 -423.08199364 739.19969143 -423.07545662 741.30507469 C-423.06153291 745.81323741 -423.05456536 750.32139511 -423.0486908 754.82957458 C-423.04205128 759.6839611 -423.03491762 764.53834463 -423.02550411 769.39272666 C-423.00233099 781.42741117 -422.99534714 793.46202939 -422.99829102 805.49673462 C-422.99856464 806.80180905 -422.99856464 806.80180905 -422.99884379 808.13324861 C-423.00037464 815.29837647 -423.00254416 822.46350412 -423.00474477 829.6286318 C-423.00665436 836.08282483 -423.00789996 842.53701763 -423.00830078 848.99121094 C-423.0083651 849.91147503 -423.00842942 850.83173913 -423.00849569 851.77989002 C-423.00865172 866.69717011 -422.97996332 881.61427179 -422.94156575 896.53149633 C-422.90290093 911.84339575 -422.89838912 927.15504094 -422.92484093 942.46696723 C-422.94001501 951.91375639 -422.9279803 961.35971744 -422.88120073 970.80640639 C-422.85162903 977.27895518 -422.85491346 983.75096175 -422.88417059 990.22351001 C-422.90005973 993.95941398 -422.90124008 997.69382052 -422.86323357 1001.42959785 C-422.82240349 1005.47905412 -422.85101984 1009.52504895 -422.88647461 1013.57455444 C-422.85196449 1015.34770069 -422.85196449 1015.34770069 -422.8167572 1017.15666807 C-422.96565371 1024.93488658 -422.96565371 1024.93488658 -425.97725105 1028.03606534 C-428.26073237 1029.58143506 -430.50978399 1030.82408071 -433 1032 C-433.94488281 1032.5662207 -434.88976562 1033.13244141 -435.86328125 1033.71582031 C-436.67152344 1034.16538086 -437.47976563 1034.61494141 -438.3125 1035.078125 C-439.69369019 1035.8513208 -439.69369019 1035.8513208 -441.1027832 1036.64013672 C-442.05886475 1037.1713916 -443.01494629 1037.70264648 -444 1038.25 C-450.80762394 1042.06486382 -457.59982499 1045.8951333 -464.3125 1049.875 C-471.36535698 1054.0534493 -478.45822925 1058.15959929 -485.5625 1062.25 C-494.09638275 1067.16532334 -502.62008001 1072.09721606 -511.125 1077.0625 C-512.59428955 1077.92029053 -512.59428955 1077.92029053 -514.09326172 1078.79541016 C-518.07609445 1081.12162582 -522.05817357 1083.4491261 -526.03955078 1085.77783203 C-537.51692311 1092.490528 -549.01226495 1099.16644609 -560.56591797 1105.74707031 C-567.2255459 1109.54497112 -573.83971792 1113.41503431 -580.44140625 1117.3125 C-594.25597436 1125.46596743 -608.12490384 1133.52437902 -622.06542969 1141.46044922 C-628.73599585 1145.26340109 -635.37199384 1149.12342159 -642 1153 C-649.81766056 1157.56913979 -657.64494667 1162.12039025 -665.5 1166.625 C-666.34175781 1167.1096875 -667.18351563 1167.594375 -668.05078125 1168.09375 C-668.84871094 1168.55007813 -669.64664063 1169.00640625 -670.46875 1169.4765625 C-671.49645508 1170.0655835 -671.49645508 1170.0655835 -672.54492188 1170.66650391 C-674.72866241 1171.85262073 -676.92951192 1172.97520704 -679.15344238 1174.08334351 C-679.87378914 1174.44256079 -680.59413589 1174.80177807 -681.33631134 1175.17188072 C-681.8853286 1175.44516008 -682.43434586 1175.71843945 -683 1176 C-683.25703837 1101.28767717 -683.495538 1026.57530107 -683.63514709 951.86265564 C-683.63721795 950.75725418 -683.63928881 949.65185273 -683.64142242 948.51295425 C-683.68631385 924.49081022 -683.72786689 900.46866151 -683.76597994 876.44650579 C-683.78469033 864.66640321 -683.80413859 852.8863019 -683.82397461 841.10620117 C-683.825936 839.93392649 -683.82789738 838.76165181 -683.8299182 837.55385365 C-683.89386241 799.54266245 -684.00654954 761.53180526 -684.14445831 723.52081649 C-684.28589587 684.46636532 -684.37826959 645.41209907 -684.40872485 606.3573961 C-684.41304731 600.84385378 -684.41793186 595.33031209 -684.42315865 589.81677055 C-684.42416999 588.73160423 -684.42518134 587.64643791 -684.42622333 586.52838776 C-684.44396368 569.04531499 -684.51357278 551.56281322 -684.60248051 534.0799735 C-684.69071474 516.51260665 -684.72453888 498.94580705 -684.70252066 481.37822629 C-684.69109322 470.93469218 -684.72168427 460.49323077 -684.81196315 450.05007018 C-684.86813371 443.0773376 -684.870015 436.10596505 -684.8274772 429.13313925 C-684.80478232 425.15680808 -684.80595095 421.18439947 -684.87324774 417.20848621 C-685.2396691 394.24202744 -685.2396691 394.24202744 -681.55065544 388.90200488 C-678.11562932 385.69590248 -674.36777628 384.03072485 -669.92094965 382.6594898 C-666.76239278 381.57511154 -664.10051659 379.84898919 -661.25390625 378.11328125 C-659.02422799 376.84496349 -656.79374104 375.57806648 -654.5625 374.3125 C-652.10849128 372.91691309 -649.65552965 371.51949733 -647.203125 370.12109375 C-646.28929802 369.60002045 -646.28929802 369.60002045 -645.35700989 369.06842041 C-639.48336995 365.71402039 -633.64638776 362.29799386 -627.8125 358.875 C-618.55970066 353.45001399 -609.22601183 348.18324597 -599.85595703 342.96386719 C-593.42638635 339.37653576 -587.05061407 335.71654677 -580.72070312 331.95678711 C-574.04387746 328.00094227 -567.30441605 324.15589472 -560.5625 320.3125 C-551.21483268 314.98290248 -541.87927232 309.63353361 -532.5625 304.25 C-524.04012979 299.32606306 -515.50532597 294.42502951 -506.95556641 289.54882812 C-500.103495 285.63781068 -493.26897728 281.69685993 -486.4375 277.75 C-474.83772233 271.04935115 -463.2125119 264.39422631 -451.578125 257.75390625 C-450.50199951 257.13966797 -449.42587402 256.52542969 -448.31713867 255.89257812 C-446.03129113 254.58839839 -443.74500538 253.28501035 -441.45825195 251.98242188 C-434.1719892 247.82926514 -426.91950451 243.62200984 -419.6875 239.375 C-410.18940137 233.81386665 -400.61805332 228.39670241 -391.00439453 223.03833008 C-382.48370149 218.28484162 -374.03260201 213.42108539 -365.60107422 208.51171875 C-360.44892293 205.5173391 -355.28660829 202.5405384 -350.125 199.5625 C-348.45642944 198.59969116 -348.45642944 198.59969116 -346.75415039 197.61743164 C-339.16644879 193.24206596 -331.56609249 188.88941931 -323.95776367 184.55004883 C-317.10492619 180.638683 -310.26971252 176.69726211 -303.4375 172.75 C-294.20053855 167.41450899 -284.95065811 162.10232605 -275.6875 156.8125 C-275.09647491 156.47497711 -274.50544983 156.13745422 -273.89651489 155.78970337 C-268.98041157 152.98253517 -264.06339656 150.17696564 -259.14599609 147.37207031 C-241.35151643 137.22149151 -223.57837264 127.0331495 -205.90356445 116.67529297 C-195.78282286 110.74563303 -185.59697545 104.95150004 -175.34863281 99.24536133 C-167.24855468 94.7251048 -159.22757261 90.08048528 -151.22607422 85.38842773 C-143.55513437 80.89448663 -135.84849698 76.46527921 -128.125 72.0625 C-119.06910426 66.89945507 -110.02538575 61.71628662 -101 56.5 C-91.90914269 51.24735051 -82.80472113 46.01919846 -73.6875 40.8125 C-73.09650513 40.4749469 -72.50551025 40.1373938 -71.89660645 39.78961182 C-66.06972044 36.46181958 -60.24122647 33.13686217 -54.41015625 29.81640625 C-43.12756432 23.38756094 -31.89345752 16.87907364 -20.68359375 10.32421875 C-19.76175293 9.78716309 -18.83991211 9.25010742 -17.89013672 8.69677734 C-15.82711397 7.48559234 -13.77230025 6.26037996 -11.72314453 5.02587891 C-10.11415283 4.06367432 -10.11415283 4.06367432 -8.47265625 3.08203125 C-7.4969165 2.49268799 -6.52117676 1.90334473 -5.51586914 1.29614258 C-3 0 -3 0 0 0 Z " fill="#4C4C4C" transform="translate(683,0)"/>
<path d="M0 0 C0 99.66 0 199.32 0 302 C-8.25 306.62 -16.5 311.24 -25 316 C-31.23774775 319.64975507 -31.23774775 319.64975507 -37.4609375 323.32421875 C-43.13328613 326.68145465 -48.85006883 329.96160625 -54.5625 333.25 C-63.0565633 338.14145341 -71.53763184 343.05391349 -80 348 C-95.2258816 356.89582267 -110.48818622 365.72948654 -125.8137207 374.45263672 C-135.71982263 380.09142028 -145.56230379 385.83406395 -155.38867188 391.61019897 C-164.00291689 396.6727731 -172.64564965 401.68057832 -181.33129883 406.61987305 C-187.80884409 410.30761241 -194.2529036 414.05037466 -200.6875 417.8125 C-209.17407546 422.77342784 -217.67278015 427.71251668 -226.1875 432.625 C-227.2693457 433.24930908 -228.35119141 433.87361816 -229.46582031 434.5168457 C-235.54289368 438.01964146 -241.63200277 441.50020216 -247.73242188 444.9621582 C-251.83087651 447.29213706 -255.91866109 449.64018686 -260 452 C-260.63615234 452.36593262 -261.27230469 452.73186523 -261.92773438 453.10888672 C-263.52400236 454.03527628 -265.10653273 454.98523344 -266.6875 455.9375 C-267.89986328 456.66259766 -267.89986328 456.66259766 -269.13671875 457.40234375 C-272.43186205 460.22773916 -272.93731131 463.29788671 -273.3125 467.5 C-272.96142247 471.43206838 -272.53312806 472.99191043 -270 476 C-263.77694358 480.10222705 -257.28342546 483.73755073 -250.80276489 487.41442871 C-247.68771891 489.18222113 -244.57606433 490.95595451 -241.46484375 492.73046875 C-240.51979225 493.26947311 -240.51979225 493.26947311 -239.5556488 493.81936646 C-233.53526758 497.25751738 -227.54553684 500.74730233 -221.5625 504.25 C-213.25930648 509.10967142 -204.92818993 513.91620606 -196.56933594 518.67944336 C-190.20382607 522.30783223 -183.85660436 525.96653206 -177.51879883 529.64306641 C-171.77644341 532.9736681 -166.02646722 536.29084777 -160.27416992 539.60424805 C-151.99789005 544.37218893 -143.72304855 549.14069257 -135.5 554 C-124.05522661 560.76159539 -112.51951753 567.36689953 -101 574 C-87.32933053 581.8732446 -73.67027077 589.76471228 -60.04956055 597.72412109 C-49.3743971 603.95795986 -38.66169096 610.12637259 -27.95068359 616.29833984 C-23.79736238 618.69356149 -19.64828256 621.09606575 -15.5 623.5 C-7.05189189 628.39452431 1.40153712 633.27983189 9.86376953 638.14990234 C15.00765214 641.11153172 20.14688052 644.08001999 25.26457214 647.08666992 C27.00827417 648.11057731 28.75374155 649.13140864 30.49975586 650.15136719 C32.67727689 651.42464603 34.8515298 652.70353841 37.02172852 653.98925781 C52.57908659 663.18820547 52.57908659 663.18820547 70.08203125 663.5234375 C73.80178102 662.30553127 76.87927387 660.47918427 80.0859375 658.2578125 C85.09202103 654.87961163 90.2851114 651.92995051 95.5625 649 C103.64938433 644.47058759 111.69162384 639.87570317 119.6875 635.1875 C128.38622647 630.09193122 137.11731428 625.05589483 145.875 620.0625 C163.25834631 610.14857664 180.60068589 600.16542584 197.875 590.0625 C207.14505515 584.64088505 216.4583165 579.29795143 225.78845215 573.98077393 C233.92570061 569.34224733 242.03968596 564.66616538 250.125 559.9375 C266.74647694 550.21732996 283.40634887 540.56726481 300.1875 531.125 C306.97823253 527.30374709 313.71504424 523.41881363 320.37524414 519.37475586 C328.24834416 514.60988449 336.26978505 510.10037897 344.26953125 505.55273438 C355.63599674 499.08897181 366.98812449 492.59974299 378.3125 486.0625 C379.07062988 485.62607178 379.82875977 485.18964355 380.60986328 484.73999023 C384.23570946 482.64262368 387.84096558 480.51429879 391.4140625 478.328125 C392.05424316 477.93657227 392.69442383 477.54501953 393.35400391 477.14160156 C395.8928062 475.38078288 396.98219575 473.91770552 398 471 C398.03398548 466.75181447 397.42774638 462.57021526 395 459 C394.34 458.67 393.68 458.34 393 458 C393 457.34 393 456.68 393 456 C392.04867188 455.6596875 392.04867188 455.6596875 391.078125 455.3125 C386.80735886 453.49146266 382.80774578 451.25009918 378.75 449 C377.85812988 448.50725586 376.96625977 448.01451172 376.04736328 447.50683594 C369.92123225 444.106217 363.8569718 440.61358197 357.83203125 437.03735352 C351.50295822 433.28199745 345.12942744 429.60655139 338.75 425.9375 C329.3070653 420.50237881 319.89391716 415.01931985 310.5 409.5 C298.10613337 402.21950675 285.66962751 395.01543622 273.21044922 387.84716797 C258.46263448 379.36184734 243.72855439 370.85438764 229.03857422 362.26928711 C220.61799495 357.35164118 212.17204102 352.47872892 203.72192383 347.61206055 C196.36231136 343.37063878 189.02020729 339.10024438 181.6875 334.8125 C173.31098111 329.91472028 164.90350576 325.07521882 156.47094727 320.2746582 C150.1454026 316.66849519 143.85647122 313.00385316 137.59008789 309.29589844 C136.95449951 308.91981445 136.31891113 308.54373047 135.6640625 308.15625 C135.12217285 307.83462891 134.5802832 307.51300781 134.02197266 307.18164062 C131.02774823 305.43181616 128.01109746 303.72062712 125 302 C125 202.34 125 102.68 125 0 C128.66488568 0.91622142 131.01292331 1.97710207 134.26171875 3.80859375 C135.28918213 4.38544922 136.31664551 4.96230469 137.37524414 5.55664062 C138.46828857 6.17732422 139.56133301 6.79800781 140.6875 7.4375 C141.81728271 8.07494141 142.94706543 8.71238281 144.11108398 9.36914062 C152.36538222 14.03918871 160.55655925 18.80697148 168.71191406 23.64697266 C189.52790296 35.95621407 210.49612893 48.01485463 231.5 60 C264.69465471 78.94489613 264.69465471 78.94489613 275.5625 85.5625 C281.96874832 89.46046213 288.51018225 93.10417511 295.0625 96.75 C303.94900925 101.69512627 312.74663429 106.76121018 321.4831543 111.96606445 C328.89930528 116.37439587 336.37765962 120.66931492 343.875 124.9375 C357.61450972 132.76198056 371.27449594 140.71832928 384.91796875 148.70898438 C402.17440419 158.81171727 419.51857168 168.75420779 436.89501953 178.6484375 C447.98397551 184.96323231 459.03318401 191.34062167 470.04858398 197.78295898 C477.48318659 202.12685937 484.94778579 206.41538003 492.42895508 210.6784668 C498.80158493 214.31092011 505.15550472 217.97440227 511.50097656 221.65405273 C518.18287268 225.52853883 524.87167371 229.39095719 531.5625 233.25 C532.66021729 233.88325195 533.75793457 234.51650391 534.88891602 235.16894531 C540.45759178 238.38112888 546.02706731 241.59191665 551.59765625 244.80078125 C562.08048983 250.84107278 572.55381782 256.8965064 583 263 C597.98864754 271.75590318 613.01152054 280.45303952 628.09375 289.046875 C628.68433197 289.38341599 629.27491394 289.71995697 629.88339233 290.06669617 C630.47407501 290.40328751 631.06475769 290.73987885 631.67333984 291.08666992 C642.09363994 297.02480137 652.4752807 303.01938319 662.78759766 309.14379883 C679.37710974 318.98541886 696.14671868 328.51950747 712.90161133 338.07580566 C721.98617405 343.25884968 731.03554946 348.49960975 740.06298828 353.78149414 C747.35929012 358.04906249 754.67530668 362.28136817 762 366.5 C770.75847354 371.54794827 779.51141643 376.60518269 788.25 381.6875 C789.24386719 382.26371094 790.23773437 382.83992188 791.26171875 383.43359375 C792.19113281 383.975 793.12054687 384.51640625 794.078125 385.07421875 C795.29097168 385.77937622 795.29097168 385.77937622 796.52832031 386.4987793 C797.34397461 386.99418213 798.15962891 387.48958496 799 388 C800.02575122 388.42827835 801.05150245 388.8565567 802.10833704 389.29781318 C805.46629065 392.43573697 805.46810508 393.11818452 805.74519098 397.52382493 C805.77380569 399.92778405 805.76866547 402.33227239 805.73828697 404.73620987 C805.7427238 406.07793828 805.74979426 407.41966012 805.75926596 408.76136243 C805.77773624 412.4683944 805.7585861 416.17444415 805.73359716 419.88140317 C805.71303976 423.90648873 805.72720747 427.93147191 805.7370621 431.95657706 C805.74952364 439.01754565 805.73960992 446.07821142 805.71523285 453.1391449 C805.67908547 463.63849843 805.67721212 474.13766023 805.68248478 484.63706464 C805.69037646 502.29694222 805.67028849 519.95668531 805.63438034 537.61652374 C805.598906 555.1077567 805.5757903 572.59893367 805.56926346 590.09020233 C805.56885102 591.17682325 805.56843858 592.26344417 805.56801365 593.38299299 C805.56598371 598.90115232 805.56417539 604.41931169 805.56245239 609.93747112 C805.54984223 649.04591734 805.50939667 688.15429035 805.45263672 727.26269531 C805.3975509 765.26138926 805.35503906 803.2600632 805.32958984 841.25878906 C805.32880069 842.42960279 805.32801153 843.60041652 805.32719846 844.80670946 C805.3192875 856.56425637 805.31163259 868.32180344 805.3041653 880.07935064 C805.28894709 904.03188506 805.27201957 927.98441817 805.25405884 951.93695068 C805.2532351 953.03830484 805.25241136 954.139659 805.25156266 955.27438752 C805.1963373 1028.84962213 805.10126361 1102.42481613 805 1176 C803.68 1175.67 802.36 1175.34 801 1175 C801 916.94 801 658.88 801 393 C785.56558316 401.43339187 785.56558316 401.43339187 770.375 410.25 C759.08540496 416.97619193 747.70584861 423.54088155 736.31445312 430.09277344 C730.87349443 433.2236492 725.43692011 436.36211805 720 439.5 C713.47770002 443.26369591 706.95486233 447.02644625 700.4296875 450.78515625 C688.94835047 457.4005933 677.48274899 464.04145782 666.04296875 470.72851562 C658.66997384 475.03508098 651.27567124 479.30370548 643.875 483.5625 C635.92744475 488.13671267 628.00813176 492.75317309 620.125 497.4375 C611.84080756 502.3578543 603.49734314 507.16916163 595.125 511.9375 C583.34780231 518.64524304 571.62308229 525.43870625 559.92675781 532.28662109 C543.41301615 541.95407513 526.86340801 551.55759435 510.28222656 561.10888672 C503.77270411 564.85946399 497.2660522 568.61501989 490.75927734 572.37036133 C485.29465337 575.52385162 479.82852098 578.6746704 474.359375 581.8203125 C463.36038174 588.15004421 452.39273569 594.52468783 441.4831543 601.00732422 C433.28192531 605.86527779 425.00328836 610.58426619 416.71936035 615.29901123 C410.23356095 618.99163238 403.75360042 622.68663384 397.375 626.5625 C387.49268056 632.5555752 377.44597907 638.26737209 367.42724609 644.02832031 C361.94844212 647.18025227 356.47436113 650.34036003 351 653.5 C344.47770839 657.2637104 337.95486232 661.02644625 331.4296875 664.78515625 C314.56895797 674.49980744 297.74543988 684.27644094 280.96484375 694.12890625 C266.07951689 702.86788043 251.16343813 711.54945645 236.20166016 720.15722656 C230.79856399 723.26707633 225.39947775 726.38387342 220 729.5 C213.47769165 733.26368143 206.95486234 737.02644624 200.4296875 740.78515625 C188.94693103 747.40141117 177.48039099 754.04390011 166.03857422 760.73071289 C157.61430661 765.65051282 149.16446104 770.52522138 140.7109375 775.39453125 C133.46048486 779.57349142 126.22513764 783.77743956 119 788 C109.48854402 793.55825463 99.96121216 799.08838758 90.40551758 804.5703125 C85.34509007 807.47580642 80.30454428 810.4040498 75.3125 813.42578125 C74.44149658 813.94760986 73.57049316 814.46943848 72.6730957 815.00708008 C71.06536979 815.97272628 69.46438553 816.94972612 67.87182617 817.94018555 C67.16517822 818.36211182 66.45853027 818.78403809 65.73046875 819.21875 C64.82397583 819.7746582 64.82397583 819.7746582 63.89916992 820.34179688 C60.50719672 821.51736697 57.84268387 820.39775251 54.7019043 818.9152832 C53.52494995 818.23985474 53.52494995 818.23985474 52.32421875 817.55078125 C51.42662842 817.0398291 50.52903809 816.52887695 49.60424805 816.00244141 C48.64172119 815.44476074 47.67919434 814.88708008 46.6875 814.3125 C45.67276611 813.73161621 44.65803223 813.15073242 43.61254883 812.55224609 C34.43241348 807.28487432 25.29436919 801.94415377 16.16015625 796.59765625 C6.56057762 790.98321325 -3.08135951 785.4419968 -12.71777344 779.89111328 C-19.22871257 776.13971976 -25.73663194 772.38309006 -32.24511719 768.62744141 C-37.68585336 765.48817754 -43.12731477 762.35018503 -48.5703125 759.21484375 C-59.02206279 753.19252625 -69.46293115 747.15319743 -79.875 741.0625 C-88.51282001 736.01161981 -97.1831964 731.01975647 -105.875 726.0625 C-124.29181086 715.55835687 -142.65673175 704.96668083 -160.96191406 694.26904297 C-169.38369647 689.35057832 -177.83072289 684.47661163 -186.2824707 679.60986328 C-193.60069929 675.39287551 -200.89836775 671.14204091 -208.1875 666.875 C-215.92165348 662.34991282 -223.69015653 657.89312021 -231.5 653.5 C-240.31875384 648.53935695 -249.07661269 643.48277497 -257.80859375 638.37109375 C-265.18906622 634.0515149 -272.58918008 629.76728686 -280 625.5 C-288.45364364 620.63147207 -296.89118704 615.73673475 -305.3125 610.8125 C-312.68598205 606.50170125 -320.07772786 602.22623979 -327.5 598 C-334.92227398 593.77375916 -342.31392858 589.49814792 -349.6875 585.1875 C-367.69839952 574.66032961 -385.78068057 564.25926875 -403.90216064 553.92391968 C-412.98653587 548.74096057 -422.03572642 543.50028671 -431.06298828 538.21850586 C-438.3592886 533.9509384 -445.67518563 529.71841978 -453 525.5 C-461.34802509 520.69155242 -469.68243232 515.86094289 -478 511 C-489.54722486 504.25286886 -501.12902119 497.5666063 -512.71777344 490.89111328 C-519.22871257 487.13971976 -525.73663194 483.38309006 -532.24511719 479.62744141 C-537.68585336 476.48817754 -543.12731477 473.35018503 -548.5703125 470.21484375 C-559.02206236 464.1925265 -569.46296702 458.15325836 -579.875 452.0625 C-588.65760017 446.92634834 -597.4748685 441.85312737 -606.3125 436.8125 C-606.91008118 436.47165375 -607.50766235 436.1308075 -608.12335205 435.77963257 C-608.71638123 435.44138458 -609.3094104 435.1031366 -609.92041016 434.75463867 C-618.81326409 429.68204815 -627.68787236 424.5795907 -636.53759766 419.43212891 C-638.29465345 418.41022832 -640.05219386 417.38916078 -641.81005859 416.36865234 C-655.60809096 408.35725591 -669.34482063 400.2526772 -683 392 C-680.56128921 389.28958778 -677.91525173 387.64939403 -674.7578125 385.84765625 C-673.70255371 385.24236084 -672.64729492 384.63706543 -671.56005859 384.01342773 C-670.42648926 383.36962158 -669.29291992 382.72581543 -668.125 382.0625 C-666.941967 381.38594034 -665.75918978 380.70893324 -664.57666016 380.03149414 C-661.05431091 378.01534523 -657.52736129 376.00736709 -654 374 C-651.29520963 372.4576668 -648.59086488 370.91455615 -645.88671875 369.37109375 C-644.20214016 368.40960022 -642.51724036 367.44866924 -640.83203125 366.48828125 C-634.23690538 362.72394 -627.67830601 358.89908238 -621.125 355.0625 C-611.32531338 349.32796194 -601.46331917 343.7122568 -591.5703125 338.140625 C-575.09015979 328.85876553 -558.71756443 319.38782996 -542.33935547 309.92773438 C-539.03067105 308.01770571 -535.72064961 306.1100164 -532.41015625 304.203125 C-530.23172327 302.94799921 -528.0533377 301.69279114 -525.875 300.4375 C-524.79847168 299.81713867 -523.72194336 299.19677734 -522.61279297 298.55761719 C-516.36695552 294.95443035 -510.13554136 291.32778071 -503.91455078 287.68188477 C-493.79263707 281.7510111 -483.60600439 275.95489057 -473.35522461 270.24975586 C-465.18495591 265.69178001 -457.1021333 260.99616424 -449.03491211 256.25878906 C-441.76035222 251.99823967 -434.42759604 247.85181081 -427.0625 243.75 C-419.56487039 239.57380146 -412.11044749 235.34586933 -404.73168945 230.96337891 C-397.94666735 226.94364356 -391.09967205 223.03311674 -384.25 219.125 C-383.64332489 218.77876587 -383.03664978 218.43253174 -382.41159058 218.07580566 C-377.30058781 215.15931119 -372.18787125 212.24583056 -367.07421875 209.33398438 C-364.46566157 207.84850355 -361.8575931 206.36217248 -359.25 204.875 C-358.42105225 204.40223633 -357.59210449 203.92947266 -356.73803711 203.44238281 C-350.07020721 199.63071962 -343.44003863 195.75618843 -336.8125 191.875 C-329.91683886 187.83742331 -323.0020704 183.85022086 -316 180 C-308.11861397 175.66519305 -300.3529625 171.14531729 -292.5925293 166.59814453 C-284.69335983 161.97481624 -276.76222108 157.41059618 -268.8125 152.875 C-268.21886658 152.53621826 -267.62523315 152.19743652 -267.01361084 151.84838867 C-262.0455291 149.01354717 -257.07564112 146.18187965 -252.10498047 143.3515625 C-242.14484783 137.67959537 -232.20877673 131.97029797 -222.3125 126.1875 C-204.3739445 115.70631831 -186.39662568 105.3078641 -168.24755859 95.19482422 C-160.18233489 90.68938847 -152.19466148 86.06111497 -144.22558594 81.38818359 C-136.55484932 76.89425448 -128.84833904 72.46518917 -121.125 68.0625 C-112.06910426 62.89945507 -103.02538575 57.71628662 -94 52.5 C-81.43425613 45.23957935 -68.83608972 38.036811 -56.23144531 30.84423828 C-50.66840545 27.66932115 -45.10727846 24.49105538 -39.546875 21.31152344 C-35.14083368 18.79255232 -30.73226921 16.27812939 -26.3203125 13.76953125 C-25.37792725 13.23295898 -24.43554199 12.69638672 -23.46459961 12.14355469 C-21.67712748 11.12591341 -19.88893522 10.10953543 -18.09985352 9.09472656 C-13.53618109 6.49466817 -9.07249188 3.81405258 -4.70239258 0.89819336 C-3 0 -3 0 0 0 Z " fill="#7F7F7F" transform="translate(683,0)"/>
<path d="M0 0 C0 259.71 0 519.42 0 787 C-15.61702128 779.19148936 -15.61702128 779.19148936 -20.75 776 C-27.71915621 771.72682196 -34.78762599 767.6361173 -41.875 763.5625 C-49.35275788 759.26150805 -56.8229757 754.95060384 -64.25 750.5625 C-69.001257 747.75593829 -73.76581798 744.97865145 -78.5625 742.25 C-91.90957145 734.65385565 -105.14966569 726.86826325 -118.375 719.0625 C-125.34559458 714.94859454 -132.35842692 710.90987954 -139.375 706.875 C-148.52314227 701.61396576 -157.62099302 696.27541116 -166.6875 690.875 C-175.81851672 685.43816159 -185.01038096 680.13432334 -194.28222656 674.94189453 C-202.49432661 670.3259708 -210.59470957 665.53056789 -218.68609619 660.70776367 C-225.37227974 656.72329976 -232.07275714 652.78307008 -238.875 649 C-240.09263027 648.31412572 -241.31008579 647.62794107 -242.52734375 646.94140625 C-244.31090192 645.94429893 -246.09574667 644.94896301 -247.89892578 643.98779297 C-249.75957249 642.99516377 -251.5986166 641.96974885 -253.4375 640.9375 C-255.01337891 640.08478516 -255.01337891 640.08478516 -256.62109375 639.21484375 C-259.88878604 636.17250955 -259.74735226 633.24957398 -260 629 C-260.12436224 624.88951779 -260.12220069 620.78349306 -260.10679626 616.67140198 C-260.10623956 615.44176741 -260.10568285 614.21213284 -260.10510927 612.94523662 C-260.10260583 609.54878744 -260.09561909 606.15240145 -260.08674753 602.75596654 C-260.07829015 599.08651148 -260.07571421 595.41705185 -260.07249451 591.74758911 C-260.06620587 585.3934771 -260.05647165 579.03937803 -260.04459953 572.68527412 C-260.02759741 563.48858519 -260.01806244 554.29189945 -260.0107208 545.09519827 C-259.99878257 530.16006 -259.98383668 515.22492679 -259.96557617 500.28979492 C-259.96448605 499.39650468 -259.96339593 498.50321444 -259.96227277 497.5828548 C-259.94666016 484.90409837 -259.92806413 472.22534804 -259.9082749 459.54659753 C-259.90688158 458.65361048 -259.90548827 457.76062343 -259.90405273 456.84057617 C-259.9026592 455.94868092 -259.90126567 455.05678567 -259.89982992 454.13786329 C-259.87678342 439.258697 -259.86147556 424.37953466 -259.85249335 409.50035328 C-259.84664588 400.32844111 -259.83428878 391.15658331 -259.81352056 381.98469257 C-259.79979641 375.69922689 -259.79331869 369.41378017 -259.79251044 363.12829966 C-259.79180758 359.50389323 -259.78783865 355.87956789 -259.7750473 352.25518227 C-259.76123915 348.3219594 -259.76301494 344.38882937 -259.76622009 340.45558167 C-259.75971229 339.31607876 -259.75320449 338.17657585 -259.74649948 337.00254256 C-259.74022715 324.42768932 -259.74022715 324.42768932 -266 314 C-269.3041154 312.3479423 -272.43881417 312.41660755 -276 313 C-279.77114666 314.57137323 -283.19600561 316.638919 -286.6875 318.75 C-287.69643311 319.34055176 -288.70536621 319.93110352 -289.74487305 320.53955078 C-291.83075291 321.76051385 -293.91286946 322.98792837 -295.99121094 324.22167969 C-299.5684156 326.33595742 -303.17529029 328.39379171 -306.78955078 330.44384766 C-323.99746622 340.2051018 -341.11309173 350.13250345 -358.1875 360.125 C-365.96159205 364.67427406 -373.77272053 369.14962127 -381.625 373.5625 C-390.10945643 378.33098845 -398.50996658 383.22477424 -406.87597656 388.19775391 C-413.00877317 391.83821177 -419.1756222 395.41170989 -425.375 398.9375 C-432.83988788 403.18313309 -440.27406653 407.47762856 -447.6875 411.8125 C-465.6965874 422.3388566 -483.77669748 432.73983749 -501.89712524 443.07305908 C-511.0986204 448.3219258 -520.26088271 453.63523755 -529.40356445 458.98583984 C-536.71308454 463.26007667 -544.05443536 467.47563116 -551.41088867 471.66845703 C-559.52912275 476.2966164 -567.62263965 480.9660587 -575.69921875 485.66650391 C-578.0340153 487.01971472 -580.37580054 488.36018234 -582.71875 489.69921875 C-584.22929175 490.57009557 -585.73971338 491.4411808 -587.25 492.3125 C-587.92901367 492.69680176 -588.60802734 493.08110352 -589.30761719 493.47705078 C-595.90036575 497.30281784 -601.85617035 501.25480885 -604.875 508.5 C-605.26429688 509.3971875 -605.65359375 510.294375 -606.0546875 511.21875 C-607.7659827 516.25363506 -608.12525089 521.12205213 -608.12863445 526.41348743 C-608.13347112 528.33024051 -608.13347112 528.33024051 -608.1384055 530.28571588 C-608.13693449 531.69640285 -608.13536678 533.10708972 -608.13371277 534.51777649 C-608.13558155 536.0220933 -608.13788252 537.52640962 -608.14057809 539.03072518 C-608.14669421 543.16137356 -608.14656272 547.29200169 -608.14538372 551.42265356 C-608.14517966 555.87879776 -608.15069891 560.33493548 -608.15544128 564.79107666 C-608.16374734 573.52029314 -608.1664961 582.24950287 -608.16705366 590.97872297 C-608.16752884 598.07423271 -608.16958366 605.16974022 -608.17275429 612.26524925 C-608.18156069 632.38240839 -608.18617368 652.4995622 -608.18542381 672.61672328 C-608.18538386 673.70121973 -608.1853439 674.78571619 -608.18530273 675.90307617 C-608.18524141 677.53180705 -608.18524141 677.53180705 -608.18517885 679.19344159 C-608.18477237 696.79210753 -608.19434249 714.39075206 -608.2084411 731.98941181 C-608.2228033 750.05967504 -608.22971137 768.12992784 -608.22884732 786.20019692 C-608.2285153 796.34524354 -608.23126462 806.49026774 -608.24202538 816.63530922 C-608.2511283 825.27272963 -608.25330732 833.91011745 -608.24651595 842.54754058 C-608.24324973 846.95367484 -608.24319779 851.35974655 -608.2518692 855.76587486 C-608.25973053 859.80191709 -608.25830652 863.83784713 -608.24958507 867.87388661 C-608.24804928 869.33146255 -608.24986924 870.78904685 -608.25544515 872.24661294 C-608.64941399 885.29004094 -608.64941399 885.29004094 -603.8125 897 C-600.21678804 899.55695073 -598.43600864 900.14544291 -594 900 C-586.49759986 896.96440565 -579.5135093 892.48117717 -572.5625 888.375 C-570.42854688 887.12212078 -568.29443053 885.86951955 -566.16015625 884.6171875 C-564.59031982 883.69437988 -564.59031982 883.69437988 -562.98876953 882.75292969 C-558.83613649 880.31738768 -554.66937694 877.90672818 -550.5 875.5 C-544.30370238 871.92039113 -538.12055602 868.31894339 -531.94360352 864.70605469 C-523.55125799 859.79825029 -515.14641459 854.92403689 -506.65673828 850.18652344 C-501.24081535 847.15630262 -495.89183872 844.01877223 -490.54931641 840.86132812 C-484.58181247 837.335628 -478.58753447 833.8580332 -472.58544922 830.39160156 C-467.02315179 827.17693239 -461.47359664 823.94103384 -455.92822266 820.69726562 C-447.53981268 815.7912092 -439.13877033 810.91889315 -430.65234375 806.18432617 C-426.00063988 803.58218903 -421.39986825 800.90126694 -416.8125 798.1875 C-410.59261152 794.50854163 -404.34116104 790.89023486 -398.0625 787.3125 C-382.4428403 778.40990106 -366.86401845 769.43611791 -351.34057617 760.36669922 C-349.30706439 759.17958712 -347.27210727 757.99494681 -345.2355957 756.81298828 C-340.99266489 754.34875179 -336.76569935 751.87290509 -332.6015625 749.27734375 C-331.95928711 748.88538818 -331.31701172 748.49343262 -330.65527344 748.08959961 C-329.02969061 747.09467693 -327.41648028 746.07961096 -325.8046875 745.0625 C-323 744 -323 744 -320.23046875 744.46484375 C-315.79691521 746.57171986 -311.63331065 749.0195498 -307.4375 751.5625 C-305.4691389 752.74023355 -303.50036727 753.91728117 -301.53125 755.09375 C-300.479375 755.72410156 -299.4275 756.35445312 -298.34375 757.00390625 C-292.39397372 760.55570027 -286.41592049 764.05920491 -280.4375 767.5625 C-279.81948517 767.92491791 -279.20147034 768.28733582 -278.56472778 768.66073608 C-269.02397796 774.25427696 -259.44355381 779.77503519 -249.83203125 785.24609375 C-238.30489438 791.80826371 -226.84747817 798.48641111 -215.4375 805.25 C-206.27597113 810.68025558 -197.06405343 816.01901961 -187.83398438 821.33178711 C-173.72005599 829.45776621 -159.65107268 837.66080692 -145.625 845.9375 C-137.4789563 850.74298628 -129.28201446 855.45941849 -121.08666992 860.18017578 C-105.82402525 868.97597318 -90.60663939 877.85017671 -75.43725586 886.8059082 C-71.31131341 889.23965125 -67.16373586 891.63143983 -63 894 C-63 894.66 -63 895.32 -63 896 C-64.79052734 897.27416992 -64.79052734 897.27416992 -67.3359375 898.73046875 C-68.7588208 899.55212524 -68.7588208 899.55212524 -70.21044922 900.39038086 C-71.77690186 901.27995483 -71.77690186 901.27995483 -73.375 902.1875 C-74.99365967 903.11864624 -74.99365967 903.11864624 -76.64501953 904.06860352 C-78.93744084 905.38670445 -81.23114447 906.70220028 -83.52734375 908.01367188 C-87.91641837 910.52162706 -92.29149541 913.05370029 -96.66772461 915.58398438 C-99.91360683 917.45981126 -103.16156313 919.33199728 -106.41015625 921.203125 C-110.83616427 923.75256876 -115.26062725 926.30465818 -119.68359375 928.859375 C-129.65143246 934.61613119 -139.62386381 940.36375735 -149.625 946.0625 C-156.96482896 950.24558642 -164.27103666 954.48321003 -171.5625 958.75 C-180.34390654 963.88854287 -189.16006035 968.96312315 -198 974 C-206.69402247 978.95377615 -215.36502672 983.94369212 -224 989 C-233.22800529 994.4035646 -242.4999467 999.72652361 -251.79101562 1005.02050781 C-259.88744133 1009.63502804 -267.95806509 1014.29095255 -276 1019 C-284.63497557 1024.05630923 -293.30606319 1029.04607122 -302 1034 C-310.73402488 1038.97727081 -319.44732603 1043.98734066 -328.125 1049.0625 C-345.98700066 1059.50913578 -363.92335152 1069.82475953 -381.8991394 1080.07406616 C-391.0535997 1085.29523463 -400.16527725 1090.58637979 -409.25854492 1095.91333008 C-417.08136038 1100.48671864 -424.96239742 1104.95114112 -432.85986328 1109.39404297 C-439.00674923 1112.85753821 -445.10501983 1116.39131924 -451.17333984 1119.99023438 C-457.92768152 1123.98366571 -464.74507927 1127.8656995 -471.5625 1131.75 C-481.42778004 1137.37203356 -491.26024747 1143.04583482 -501.06079102 1148.78027344 C-509.44933267 1153.68650358 -517.86541691 1158.54394444 -526.28735352 1163.39257812 C-532.56952652 1167.01213 -538.83704568 1170.65523386 -545.09204102 1174.3215332 C-555.41659356 1180.37268667 -565.81271099 1186.27662035 -576.26879883 1192.09741211 C-582.40828113 1195.52341277 -588.48193136 1199.02733203 -594.48730469 1202.68237305 C-600.42019092 1206.28377664 -606.44935973 1209.71063495 -612.48071289 1213.14379883 C-619.56355556 1217.17611336 -626.62944754 1221.23695367 -633.6875 1225.3125 C-634.77844971 1225.94236816 -635.86939941 1226.57223633 -636.9934082 1227.22119141 C-639.21881806 1228.5062298 -641.44415956 1229.79138657 -643.66943359 1231.07666016 C-649.11190894 1234.21958794 -654.55602477 1237.35967118 -660 1240.5 C-662.1666748 1241.7499859 -664.33334146 1242.99998592 -666.5 1244.25 C-679.50000004 1251.75000002 -679.50000004 1251.75000002 -682.75341797 1253.62695312 C-684.90871311 1254.8704051 -687.06398673 1256.11389436 -689.21923828 1257.35742188 C-694.22337674 1260.24462875 -699.2277052 1263.1315043 -704.23284912 1266.01696777 C-705.98341241 1267.02619104 -707.73390411 1268.03553836 -709.484375 1269.04492188 C-711.66392165 1270.3016766 -713.84359832 1271.55820586 -716.0234375 1272.81445312 C-717.52390625 1273.67973633 -717.52390625 1273.67973633 -719.0546875 1274.5625 C-720.02631836 1275.12195312 -720.99794922 1275.68140625 -721.99902344 1276.2578125 C-724.12353665 1277.4911778 -726.24069131 1278.73725904 -728.35253906 1279.9921875 C-729.4350293 1280.63414063 -730.51751953 1281.27609375 -731.6328125 1281.9375 C-732.6139502 1282.52402344 -733.59508789 1283.11054687 -734.60595703 1283.71484375 C-737 1285 -737 1285 -739 1285 C-739.55816599 1203.52256333 -740.08282107 1122.04492857 -740.42927551 1040.56628418 C-740.43441279 1039.36034802 -740.43955007 1038.15441186 -740.44484302 1036.91193218 C-740.5562892 1010.70359133 -740.6617173 984.49522951 -740.76094617 958.28683963 C-740.80964471 945.43422333 -740.85967309 932.58161235 -740.91040039 919.72900391 C-740.91542573 918.45001586 -740.92045107 917.17102782 -740.92562869 915.85328256 C-741.08913429 874.39844967 -741.34044682 832.94471437 -741.63730631 791.49063995 C-741.94190882 748.89053918 -742.15790373 706.29088571 -742.26244083 663.68980181 C-742.27724769 657.67253735 -742.29306727 651.65527596 -742.30950356 645.63801575 C-742.31270713 644.45373455 -742.3159107 643.26945336 -742.31921135 642.04928486 C-742.37338269 622.98626089 -742.5209304 603.92504878 -742.70342226 584.86286899 C-742.88490508 565.69784846 -742.96795768 546.53440077 -742.95070698 527.36851096 C-742.94344425 515.98047389 -743.01146735 504.59870156 -743.18769558 493.21199469 C-743.29804226 485.60117088 -743.30983168 477.99426646 -743.24227852 470.38295432 C-743.20658128 466.04539314 -743.21296061 461.71952619 -743.3398911 457.38341588 C-744.03108097 432.40951899 -744.03108097 432.40951899 -737.3246627 425.07350194 C-731.04073499 419.78700541 -723.66108752 416.42202575 -716.12047032 413.31480974 C-712.19940085 411.66266766 -708.70831282 409.64668878 -705.08203125 407.4296875 C-702.99334507 406.24275233 -700.90354205 405.05777985 -698.8125 403.875 C-689.15033315 398.38520287 -679.52833383 392.83054336 -669.93676758 387.21826172 C-662.64045426 382.95093777 -655.32471803 378.7183643 -648 374.5 C-639.65197491 369.69155242 -631.31756768 364.86094289 -623 360 C-611.45277514 353.25286886 -599.87097881 346.5666063 -588.28222656 339.89111328 C-581.77270411 336.14053601 -575.2660522 332.38498011 -568.75927734 328.62963867 C-563.29465337 325.47614838 -557.82852098 322.3253296 -552.359375 319.1796875 C-541.30866942 312.8203192 -530.28760471 306.41769505 -519.32275391 299.91137695 C-511.19041998 295.09376531 -503.00492333 290.37075777 -494.8125 285.65625 C-487.52698609 281.46234306 -480.25743648 277.24229279 -473 273 C-458.15529267 264.32591871 -443.25519992 255.74810839 -428.3515625 247.17578125 C-418.2436771 241.35807862 -408.15171238 235.51919995 -398.125 229.5625 C-389.20442537 224.26293775 -380.20856043 219.1023952 -371.19104004 213.97052002 C-362.48607286 209.01464603 -353.83349003 203.97826662 -345.22216797 198.86108398 C-337.12405304 194.05527623 -328.9696985 189.3499487 -320.80761719 184.65380859 C-313.56369629 180.48433006 -306.33861827 176.28415391 -299.125 172.0625 C-290.44748287 166.98706613 -281.73386279 161.97755342 -273 157 C-260.2832295 149.75180143 -247.63055261 142.39741201 -235 135 C-221.5775361 127.13878453 -208.12193455 119.34260167 -194.60565186 111.64413452 C-188.15801614 107.97012286 -181.71814948 104.29002503 -175.375 100.4375 C-165.49549208 94.44612983 -155.45182933 88.73554474 -145.43603516 82.97607422 C-139.91362993 79.80012226 -134.39382559 76.61966752 -128.875 73.4375 C-127.79822998 72.81665527 -126.72145996 72.19581055 -125.61206055 71.55615234 C-118.39572041 67.39173064 -111.19376891 63.20327393 -104 59 C-90.26944812 50.97732489 -76.48922034 43.04141741 -62.70898438 35.10449219 C-50.87236373 28.28595166 -39.0450073 21.45282749 -27.25 14.5625 C-24.36386668 12.87829732 -21.47748486 11.19452248 -18.59082031 9.51123047 C-16.93865619 8.54751996 -15.28691817 7.58307834 -13.63574219 6.61767578 C-11.63464783 5.44909778 -9.63050634 4.28598431 -7.625 3.125 C-6.56539062 2.50882812 -5.50578125 1.89265625 -4.4140625 1.2578125 C-2 0 -2 0 0 0 Z " fill="#000000" transform="translate(1484,393)"/>
<path d="M0 0 C4.25382409 1.28426207 7.81828752 2.90044958 11.61328125 5.203125 C13.21852661 6.16822998 13.21852661 6.16822998 14.85620117 7.15283203 C15.41874603 7.4942926 15.98129089 7.83575317 16.56088257 8.18756104 C19.57647086 10.01665821 22.6043741 11.82509466 25.6328125 13.6328125 C26.55947975 14.18634903 26.55947975 14.18634903 27.50486755 14.75106812 C33.50303584 18.32198061 39.58324178 21.73896109 45.6875 25.125 C55.83838578 30.76358334 65.88483941 36.56191203 75.90234375 42.43359375 C82.25046566 46.15334883 88.62359042 49.82900653 95 53.5 C103.30824798 58.28452593 111.59993607 63.09582432 119.875 67.9375 C128.51276678 72.98847023 137.18319729 77.98024404 145.875 82.9375 C164.25018561 93.41790191 182.57247672 103.98691985 200.83227539 114.66723633 C208.42254416 119.09876412 216.04981418 123.4633431 223.6875 127.8125 C233.37352257 133.32845895 243.0161215 138.91323781 252.625 144.5625 C271.30346717 155.54221193 290.08315379 166.34251565 308.90353394 177.0769043 C317.98745587 182.25958174 327.03618666 187.49998257 336.06298828 192.78149414 C343.35929012 197.04906249 350.67530668 201.28136817 358 205.5 C366.75847354 210.54794827 375.51141643 215.60518269 384.25 220.6875 C385.24386719 221.26371094 386.23773437 221.83992187 387.26171875 222.43359375 C388.19113281 222.975 389.12054687 223.51640625 390.078125 224.07421875 C390.88668945 224.54432373 391.69525391 225.01442871 392.52832031 225.4987793 C393.34397461 225.99418213 394.15962891 226.48958496 395 227 C396.02575122 227.42827835 397.05150245 227.8565567 398.10833704 228.29781318 C401.46629065 231.43573697 401.46810508 232.11818452 401.74519098 236.52382493 C401.77380569 238.92778405 401.76866547 241.33227239 401.73828697 243.73620987 C401.7427238 245.07793828 401.74979426 246.41966012 401.75926596 247.76136243 C401.77773624 251.4683944 401.7585861 255.17444415 401.73359716 258.88140317 C401.71303976 262.90648873 401.72720747 266.93147191 401.7370621 270.95657706 C401.74952364 278.01754565 401.73960992 285.07821142 401.71523285 292.1391449 C401.67908547 302.63849843 401.67721212 313.13766023 401.68248478 323.63706464 C401.69037646 341.29694222 401.67028849 358.95668531 401.63438034 376.61652374 C401.598906 394.1077567 401.5757903 411.59893367 401.56926346 429.09020233 C401.56885102 430.17682325 401.56843858 431.26344417 401.56801365 432.38299299 C401.56598371 437.90115232 401.56417539 443.41931169 401.56245239 448.93747112 C401.54984223 488.04591734 401.50939667 527.15429035 401.45263672 566.26269531 C401.3975509 604.26138926 401.35503906 642.2600632 401.32958984 680.25878906 C401.32880069 681.42960279 401.32801153 682.60041652 401.32719846 683.80670946 C401.3192875 695.56425637 401.31163259 707.32180344 401.3041653 719.07935064 C401.28894709 743.03188506 401.27201957 766.98441817 401.25405884 790.93695068 C401.25282323 792.58898192 401.25282323 792.58898192 401.25156266 794.27438752 C401.1963373 867.84962213 401.10126361 941.42481613 401 1015 C399.68 1014.67 398.36 1014.34 397 1014 C396.505 625.92 396.505 625.92 396 230 C394.02 229.34 392.04 228.68 390 228 C387.88430472 226.82741227 385.8039618 225.59014212 383.75 224.3125 C376.75709055 220.02235499 369.67573088 215.89972684 362.5625 211.8125 C354.02587235 206.90166414 345.50202513 201.97051241 337 197 C328.68256067 192.13883796 320.34798305 187.30851755 312 182.5 C302.662786 177.12167602 293.34607223 171.70964866 284.04345703 166.27172852 C276.67026108 161.96514756 269.27582871 157.69638514 261.875 153.4375 C253.92744666 148.86328843 246.00806168 144.24694287 238.125 139.5625 C229.31660896 134.3292178 220.43218511 129.23575524 211.52593994 124.17166138 C202.79584011 119.20447406 194.12839262 114.14263792 185.5 109 C175.73793319 103.18277072 165.9160316 97.48584169 156.03961182 91.86624146 C146.97694109 86.70961345 137.95148423 81.49345126 128.95214844 76.22705078 C121.5059234 71.87164143 114.03824183 67.55452631 106.5625 63.25 C98.86391494 58.816204 91.18185138 54.35803484 83.53369141 49.83789062 C76.07665072 45.43936675 68.56876712 41.1291886 61.06640625 36.80859375 C52.7236773 32.00140929 44.40033997 27.16205906 36.09130859 22.296875 C30.66190661 19.12168062 25.21752967 15.9751582 19.75390625 12.859375 C18.54226712 12.16675516 17.33067812 11.47404761 16.11914062 10.78125 C13.78637036 9.44732926 11.45004455 8.12042702 9.11132812 6.796875 C8.06525391 6.19875 7.01917969 5.600625 5.94140625 4.984375 C5.01013916 4.45553711 4.07887207 3.92669922 3.11938477 3.38183594 C1 2 1 2 0 0 Z " fill="#4C4C4C" transform="translate(1087,161)"/>
</svg>
